<svg xmlns="http://www.w3.org/2000/svg" xmlns:xlink="http://www.w3.org/1999/xlink" width="87" height="87" viewBox="0 0 87 87">
  <defs>
    <polygon id="article-icon-a" points="0 86.639 86.639 86.639 86.639 0 0 0"/>
  </defs>
  <g fill="none" fill-rule="evenodd">
    <path fill="#F7971D" d="M86.6389,43.3188 C86.6389,67.2438 67.2439,86.6388 43.3199,86.6388 C19.3949,86.6388 -0.0001,67.2438 -0.0001,43.3188 C-0.0001,19.3938 19.3949,0.0008 43.3199,0.0008 C67.2439,0.0008 86.6389,19.3938 86.6389,43.3188"/>
    <path fill="#FEFEFE" d="M23.3352,61.6674 L60.2492,61.6674 L60.2492,23.1234 L27.2932,23.1234 L27.2932,57.5984 C27.2932,57.9824 26.9812,58.2964 26.5962,58.2964 C26.2102,58.2964 25.8982,57.9824 25.8982,57.5984 L25.8982,30.0254 L23.3352,30.0254 L23.3352,61.6674 Z M61.6442,63.0624 L21.9402,63.0624 L21.9402,28.6314 L25.8982,28.6314 L25.8982,21.7284 L61.6442,21.7284 L61.6442,63.0624 Z"/>
    <path fill="#FEFEFE" d="M57.0022 30.0815L45.4422 30.0815C45.0572 30.0815 44.7442 29.7695 44.7442 29.3835 44.7442 28.9985 45.0572 28.6865 45.4422 28.6865L57.0022 28.6865C57.3872 28.6865 57.6992 28.9985 57.6992 29.3835 57.6992 29.7695 57.3872 30.0815 57.0022 30.0815M57.0022 34.0805L45.4422 34.0805C45.0572 34.0805 44.7442 33.7685 44.7442 33.3825 44.7442 32.9975 45.0572 32.6855 45.4422 32.6855L57.0022 32.6855C57.3872 32.6855 57.6992 32.9975 57.6992 33.3825 57.6992 33.7685 57.3872 34.0805 57.0022 34.0805M57.0022 38.0805L45.4422 38.0805C45.0572 38.0805 44.7442 37.7685 44.7442 37.3825 44.7442 36.9975 45.0572 36.6845 45.4422 36.6845L57.0022 36.6845C57.3872 36.6845 57.6992 36.9975 57.6992 37.3825 57.6992 37.7685 57.3872 38.0805 57.0022 38.0805M57.0022 49.9135L45.4422 49.9135C45.0572 49.9135 44.7442 49.6015 44.7442 49.2155 44.7442 48.8305 45.0572 48.5185 45.4422 48.5185L57.0022 48.5185C57.3872 48.5185 57.6992 48.8305 57.6992 49.2155 57.6992 49.6015 57.3872 49.9135 57.0022 49.9135M57.0022 53.9135L45.4422 53.9135C45.0572 53.9135 44.7442 53.6015 44.7442 53.2155 44.7442 52.8305 45.0572 52.5175 45.4422 52.5175L57.0022 52.5175C57.3872 52.5175 57.6992 52.8305 57.6992 53.2155 57.6992 53.6015 57.3872 53.9135 57.0022 53.9135M57.0022 57.9126L45.4422 57.9126C45.0572 57.9126 44.7442 57.6006 44.7442 57.2146 44.7442 56.8296 45.0572 56.5176 45.4422 56.5176L57.0022 56.5176C57.3872 56.5176 57.6992 56.8296 57.6992 57.2146 57.6992 57.6006 57.3872 57.9126 57.0022 57.9126M42.4837 49.9135L30.9237 49.9135C30.5397 49.9135 30.2267 49.6015 30.2267 49.2155 30.2267 48.8305 30.5397 48.5185 30.9237 48.5185L42.4837 48.5185C42.8687 48.5185 43.1807 48.8305 43.1807 49.2155 43.1807 49.6015 42.8687 49.9135 42.4837 49.9135M42.4837 53.9135L30.9237 53.9135C30.5397 53.9135 30.2267 53.6015 30.2267 53.2155 30.2267 52.8305 30.5397 52.5175 30.9237 52.5175L42.4837 52.5175C42.8687 52.5175 43.1807 52.8305 43.1807 53.2155 43.1807 53.6015 42.8687 53.9135 42.4837 53.9135M42.4837 57.9126L30.9237 57.9126C30.5397 57.9126 30.2267 57.6006 30.2267 57.2146 30.2267 56.8296 30.5397 56.5176 30.9237 56.5176L42.4837 56.5176C42.8687 56.5176 43.1807 56.8296 43.1807 57.2146 43.1807 57.6006 42.8687 57.9126 42.4837 57.9126M57.0022 42.0249L30.9242 42.0249C30.5392 42.0249 30.2272 41.7129 30.2272 41.3269 30.2272 40.9419 30.5392 40.6289 30.9242 40.6289L57.0022 40.6289C57.3872 40.6289 57.6992 40.9419 57.6992 41.3269 57.6992 41.7129 57.3872 42.0249 57.0022 42.0249M57.0022 45.9692L30.9242 45.9692C30.5392 45.9692 30.2272 45.6572 30.2272 45.2712 30.2272 44.8862 30.5392 44.5742 30.9242 44.5742L57.0022 44.5742C57.3872 44.5742 57.6992 44.8862 57.6992 45.2712 57.6992 45.6572 57.3872 45.9692 57.0022 45.9692"/>
    <mask id="article-icon-b" fill="#fff">
      <use xlink:href="#article-icon-a"/>
    </mask>
    <path fill="#FEFEFE" d="M32.045,36.706 L41.251,36.706 L41.251,27.5 L32.045,27.5 L32.045,36.706 Z M30.65,38.1 L42.646,38.1 L42.646,26.104 L30.65,26.104 L30.65,38.1 Z" mask="url(#article-icon-b)"/>
  </g>
</svg>
