<svg xmlns="http://www.w3.org/2000/svg" width="87" height="87" viewBox="0 0 87 87">
  <g fill="none" fill-rule="evenodd">
    <path fill="#F7981D" d="M86.639,43.3199 C86.639,67.2449 67.244,86.6389 43.32,86.6389 C19.395,86.6389 0,67.2449 0,43.3199 C0,19.3949 19.395,-0.0001 43.32,-0.0001 C67.244,-0.0001 86.639,19.3949 86.639,43.3199"/>
    <path fill="#FFF" d="M20.4838 28.8296C20.4838 29.3206 20.0858 29.7206 19.5928 29.7206 19.1018 29.7206 18.7038 29.3206 18.7038 28.8296 18.7038 28.3386 19.1018 27.9396 19.5928 27.9396 20.0858 27.9396 20.4838 28.3386 20.4838 28.8296M23.8207 28.8296C23.8207 29.3206 23.4227 29.7206 22.9297 29.7206 22.4387 29.7206 22.0407 29.3206 22.0407 28.8296 22.0407 28.3386 22.4387 27.9396 22.9297 27.9396 23.4227 27.9396 23.8207 28.3386 23.8207 28.8296M27.1576 28.8296C27.1576 29.3206 26.7596 29.7206 26.2666 29.7206 25.7756 29.7206 25.3776 29.3206 25.3776 28.8296 25.3776 28.3386 25.7756 27.9396 26.2666 27.9396 26.7596 27.9396 27.1576 28.3386 27.1576 28.8296M37.7836 55.5123L22.0406 55.5123C21.6886 55.5123 21.4026 55.2273 21.4026 54.8743 21.4026 54.5223 21.6886 54.2383 22.0406 54.2383L37.7836 54.2383C38.1356 54.2383 38.4216 54.5223 38.4216 54.8743 38.4216 55.2273 38.1356 55.5123 37.7836 55.5123"/>
    <path fill="#FFF" d="M69.5717,21.9332 C69.3317,22.1752 69.0797,22.4292 68.8407,22.6692 C69.2497,23.0792 69.6697,23.4992 70.0717,23.9032 C70.3157,23.6642 70.5727,23.4152 70.8187,23.1762 C70.4017,22.7612 69.9847,22.3452 69.5717,21.9332 M66.4757,23.5172 C67.3917,24.4332 68.3157,25.3582 69.2237,26.2652 C69.4967,25.9962 69.7817,25.7152 70.0497,25.4522 C69.1347,24.5352 68.2137,23.6112 67.2987,22.6942 C67.0307,22.9622 66.7507,23.2432 66.4757,23.5172 M41.6667,48.4222 C41.6587,48.4352 41.6447,48.4522 41.6367,48.4702 C41.1457,49.6072 40.6547,50.7442 40.1707,51.8812 C40.1507,51.9262 40.1737,52.0142 40.2077,52.0532 C40.3407,52.2022 40.4937,52.3312 40.6237,52.4822 C40.7247,52.5992 40.8137,52.6142 40.9587,52.5492 C42.0347,52.0792 43.1147,51.6172 44.1937,51.1512 C44.2437,51.1282 44.2897,51.0992 44.3257,51.0802 C43.4357,50.1922 42.5557,49.3122 41.6667,48.4222 M66.7287,25.3322 C66.3587,24.9592 66.0247,24.6222 65.7157,24.3102 C57.9467,32.0792 50.1717,39.8542 42.4147,47.6112 C43.3177,48.5142 44.2387,49.4352 45.1377,50.3352 C52.9017,42.5742 60.6767,34.7982 68.4287,27.0462 C68.1137,26.7252 67.7817,26.3862 67.4117,26.0082 C67.3707,26.0672 67.3347,26.1382 67.2797,26.1942 C64.5187,28.9562 61.7567,31.7182 58.9947,34.4812 C58.9497,34.5252 58.9077,34.5722 58.8597,34.6132 C58.5587,34.8702 58.1107,34.7162 58.0237,34.3312 C57.9727,34.1112 58.0677,33.9512 58.2177,33.8012 C60.9947,31.0272 63.7707,28.2492 66.5497,25.4732 C66.6037,25.4182 66.6727,25.3762 66.7287,25.3322 M68.0817,21.9372 C68.3237,21.6922 68.5617,21.4482 68.8017,21.2072 C69.2627,20.7482 69.8887,20.7472 70.3517,21.2052 C70.7507,21.6012 71.1467,21.9972 71.5427,22.3962 C72.0007,22.8592 71.9997,23.4862 71.5407,23.9462 C71.3007,24.1882 71.0587,24.4262 70.8427,24.6422 C70.9347,24.8592 71.0407,25.0452 71.0957,25.2462 C71.1907,25.5862 71.0717,25.8832 70.8507,26.1462 C70.8107,26.1942 70.7627,26.2362 70.7187,26.2812 C62.2327,34.7662 53.7477,43.2522 45.2597,51.7372 C45.1767,51.8192 45.0727,51.8882 44.9657,51.9352 C43.0147,52.7822 41.0627,53.6262 39.1087,54.4632 C38.8887,54.5572 38.7527,54.7332 38.5927,54.8862 C38.4277,55.0432 38.2497,55.1222 38.0237,55.0442 C37.6717,54.9222 37.5377,54.4662 37.8147,54.2192 C38.1527,53.9162 38.3297,53.5362 38.5017,53.1342 C39.2687,51.3372 40.0457,49.5442 40.8227,47.7522 C40.8637,47.6602 40.9287,47.5722 41.0017,47.4982 C49.4967,39.0002 57.9937,30.5032 66.4907,22.0062 C66.9697,21.5282 67.4787,21.4922 68.0167,21.8992 C68.0287,21.9082 68.0437,21.9142 68.0817,21.9372"/>
    <path fill="#FFF" d="M40.0101 49.6363L22.0401 49.6363C21.6891 49.6363 21.4031 49.9213 21.4031 50.2733 21.4031 50.6253 21.6891 50.9103 22.0401 50.9103L39.4601 50.9103C39.6441 50.4863 39.8261 50.0613 40.0101 49.6363M65.0863 49.6363L47.3593 49.6363C46.9353 50.0613 46.5103 50.4863 46.0853 50.9103L65.0863 50.9103C65.4393 50.9103 65.7243 50.6253 65.7243 50.2733 65.7243 49.9213 65.4393 49.6363 65.0863 49.6363M43.4652 45.0347L22.0402 45.0347C21.6892 45.0347 21.4032 45.3197 21.4032 45.6717 21.4032 46.0237 21.6892 46.3087 22.0402 46.3087L42.1912 46.3087C42.6152 45.8847 43.0402 45.4597 43.4652 45.0347M65.0863 45.0347L51.9623 45.0347C51.5373 45.4597 51.1113 45.8847 50.6873 46.3087L65.0863 46.3087C65.4393 46.3087 65.7243 46.0237 65.7243 45.6717 65.7243 45.3197 65.4393 45.0347 65.0863 45.0347M48.0658 40.4332L22.0408 40.4332C21.6888 40.4332 21.4028 40.7182 21.4028 41.0702 21.4028 41.4232 21.6888 41.7082 22.0408 41.7082L46.7918 41.7082C47.2158 41.2832 47.6408 40.8582 48.0658 40.4332M65.0863 40.4332L56.5643 40.4332C56.1393 40.8582 55.7143 41.2832 55.2893 41.7082L65.0863 41.7082C65.4393 41.7082 65.7243 41.4232 65.7243 41.0702 65.7243 40.7182 65.4393 40.4332 65.0863 40.4332M56.8734 31.6255L16.4154 31.6255C16.0624 31.6255 15.7774 31.9095 15.7774 32.2625 15.7774 32.6145 16.0624 32.8995 16.4154 32.8995L55.5984 32.8995C56.0224 32.4755 56.4474 32.0505 56.8734 31.6255M71.3383 31.6255L65.3733 31.6255C64.9483 32.0505 64.5233 32.4755 64.0983 32.8995L71.3383 32.8995C71.6913 32.8995 71.9763 32.6145 71.9763 32.2625 71.9763 31.9095 71.6913 31.6255 71.3383 31.6255"/>
    <path fill="#FFF" d="M71.0121,25.0259 C71.0431,25.0989 71.0751,25.1719 71.0961,25.2469 C71.1911,25.5869 71.0721,25.8829 70.8511,26.1459 C70.8111,26.1939 70.7631,26.2359 70.7191,26.2799 L70.6991,26.2999 L70.9561,26.2999 L70.9561,63.4289 L16.8141,63.4289 L16.8141,26.2999 L62.1971,26.2999 C62.6211,25.8759 63.0461,25.4509 63.4721,25.0259 L15.5381,25.0259 L15.5381,64.7039 L72.2311,64.7039 L72.2311,25.0259 L71.0121,25.0259 Z"/>
  </g>
</svg>
