<svg xmlns="http://www.w3.org/2000/svg" width="87" height="87" viewBox="0 0 87 87">
  <g fill="none" fill-rule="evenodd">
    <path fill="#F7971D" d="M86.6389,43.3186 C86.6389,67.2446 67.2439,86.6386 43.3199,86.6386 C19.3949,86.6386 -0.0001,67.2446 -0.0001,43.3186 C-0.0001,19.3936 19.3949,0.0006 43.3199,0.0006 C67.2439,0.0006 86.6389,19.3936 86.6389,43.3186"/>
    <path fill="#FEFEFE" d="M51.2395,29.6262 L51.2395,25.6072 L57.4125,25.6072 L57.4125,61.9322 L27.8795,61.9322 L27.8795,25.6072 L34.0525,25.6072 L34.0525,29.6262 L51.2395,29.6262 Z M49.7215,28.1082 L35.5695,28.1082 L35.5695,23.4702 L39.7855,23.4702 L39.8685,22.8052 C40.0435,21.3972 41.2375,20.3362 42.6455,20.3362 C44.0535,20.3362 45.2485,21.3972 45.4235,22.8052 L45.5065,23.4702 L49.7215,23.4702 L49.7215,28.1082 Z M51.2395,24.0902 L51.2395,21.9522 L46.7935,21.9522 C46.2615,20.0992 44.5805,18.8182 42.6455,18.8182 C40.7115,18.8182 39.0295,20.0992 38.4985,21.9522 L34.0525,21.9522 L34.0525,24.0902 L26.3625,24.0902 L26.3625,63.4482 L58.9285,63.4482 L58.9285,24.0902 L51.2395,24.0902 Z"/>
    <path fill="#FEFEFE" d="M39.7298 36.8176L53.4558 36.8176C53.8738 36.8176 54.2138 36.4766 54.2138 36.0586 54.2138 35.6406 53.8738 35.3006 53.4558 35.3006L39.7298 35.3006C39.3118 35.3006 38.9718 35.6406 38.9718 36.0586 38.9718 36.4766 39.3118 36.8176 39.7298 36.8176M31.7102 35.9006C31.4392 35.5836 30.9572 35.5466 30.6412 35.8186 30.3222 36.0906 30.2862 36.5706 30.5592 36.8886L33.1412 39.9016 37.5602 33.2746C37.7912 32.9276 37.6972 32.4556 37.3492 32.2226 37.0012 31.9906 36.5292 32.0866 36.2972 32.4336L32.9902 37.3936 31.7102 35.9006zM39.7298 47.1731L53.4558 47.1731C53.8738 47.1731 54.2138 46.8331 54.2138 46.4141 54.2138 45.9961 53.8738 45.6561 53.4558 45.6561L39.7298 45.6561C39.3118 45.6561 38.9718 45.9961 38.9718 46.4141 38.9718 46.8331 39.3118 47.1731 39.7298 47.1731M37.3499 42.1936C37.1809 42.0816 36.9769 42.0406 36.7809 42.0806 36.5809 42.1206 36.4099 42.2356 36.2969 42.4036L32.9909 47.3646 31.7099 45.8716C31.4379 45.5546 30.9569 45.5176 30.6409 45.7896 30.3229 46.0616 30.2869 46.5426 30.5589 46.8596L33.1409 49.8726 37.5599 43.2456C37.7909 42.8986 37.6979 42.4266 37.3499 42.1936M39.7298 57.4524L53.4558 57.4524C53.8738 57.4524 54.2138 57.1114 54.2138 56.6924 54.2138 56.2744 53.8738 55.9344 53.4558 55.9344L39.7298 55.9344C39.3118 55.9344 38.9718 56.2744 38.9718 56.6924 38.9718 57.1114 39.3118 57.4524 39.7298 57.4524M37.3489 52.1643C37.0019 51.9333 36.5299 52.0263 36.2969 52.3743L32.9909 57.3353 31.7099 55.8423C31.4389 55.5253 30.9569 55.4883 30.6409 55.7603 30.3229 56.0323 30.2869 56.5133 30.5589 56.8303L33.1409 59.8433 37.5599 53.2163C37.7909 52.8693 37.6979 52.3973 37.3489 52.1643"/>
  </g>
</svg>
