<svg xmlns="http://www.w3.org/2000/svg" width="87" height="87" viewBox="0 0 87 87">
  <g fill="none" fill-rule="evenodd">
    <path fill="#F7971D" d="M86.639,43.319 C86.639,67.244 67.244,86.639 43.32,86.639 C19.395,86.639 0,67.244 0,43.319 C0,19.394 19.395,-1.42108547e-14 43.32,-1.42108547e-14 C67.244,-1.42108547e-14 86.639,19.394 86.639,43.319"/>
    <path fill="#FEFEFE" d="M21.4193,55.3727 C21.5423,51.5947 22.6073,49.0097 24.7153,46.8787 C27.0513,44.5167 29.4073,42.1757 31.7563,39.8277 C36.8993,34.6847 42.0403,29.5387 47.1883,24.3997 C49.4763,22.1147 52.1843,21.2407 55.3493,22.1137 C60.7873,23.6137 63.0233,30.1537 59.6483,34.6707 C59.2383,35.2187 58.7603,35.7197 58.2753,36.2047 C51.7213,42.7707 45.1593,49.3297 38.5983,55.8887 C38.2333,56.2527 37.8673,56.6187 37.4713,56.9467 C35.4573,58.6187 32.8613,58.5217 31.1203,56.7247 C29.3843,54.9317 29.3523,52.2827 31.1383,50.3837 C32.7063,48.7157 34.3613,47.1297 35.9813,45.5077 C37.7613,43.7257 39.5423,41.9427 41.3263,40.1627 C41.6093,39.8807 41.8693,39.4927 42.2153,39.3757 C42.5943,39.2477 43.2643,39.2127 43.4403,39.4327 C43.6943,39.7477 43.7623,40.3727 43.6403,40.7857 C43.5233,41.1787 43.0723,41.4807 42.7503,41.8047 C39.6763,44.8857 36.5963,47.9617 33.5223,51.0427 C33.1583,51.4067 32.7733,51.7617 32.4773,52.1757 C31.8083,53.1077 31.9093,54.3687 32.6633,55.1777 C33.4143,55.9827 34.6833,56.1817 35.6443,55.5787 C36.0733,55.3087 36.4443,54.9327 36.8083,54.5707 C43.4983,47.8977 50.1783,41.2137 56.8773,34.5487 C58.0983,33.3347 58.9723,31.9867 59.0333,30.2117 C59.1223,27.6647 58.0343,25.7477 55.7913,24.6127 C53.5403,23.4737 51.3523,23.7887 49.3603,25.3457 C49.0913,25.5567 48.8533,25.8087 48.6093,26.0517 C41.2383,33.4217 33.8673,40.7907 26.4993,48.1637 C23.8863,50.7787 22.9593,53.8757 24.0793,57.4337 C25.9683,63.4317 33.3333,65.5607 38.1823,61.5467 C38.7103,61.1097 39.1863,60.6087 39.6723,60.1227 C46.6393,53.1587 53.6033,46.1927 60.5703,39.2287 C60.9343,38.8647 61.2923,38.4877 61.7013,38.1797 C62.1803,37.8187 62.7493,37.8527 63.0533,38.3567 C63.2483,38.6817 63.2533,39.2027 63.1613,39.5937 C63.0933,39.8867 62.7463,40.1227 62.5043,40.3647 C55.1353,47.7367 47.8093,55.1517 40.3793,62.4617 C34.6713,68.0777 25.4573,66.3207 22.3993,59.0807 C21.8113,57.6867 21.6123,56.1277 21.4193,55.3727"/>
  </g>
</svg>
