<svg xmlns="http://www.w3.org/2000/svg" width="80" height="80" viewBox="0 0 80 80">
  <g fill="none" fill-rule="evenodd">
    <rect width="80" height="80" fill="#FFF"/>
    <path fill="#6AC9CF" d="M64.4781773,47.0132941 C64.1733364,46.9156471 63.8464727,47.0815294 63.7467909,47.3897647 C60.3970182,57.818 50.8797227,64.8238824 40.0654045,64.8238824 C29.4979727,64.8238824 20.1869955,58.1250588 16.6401773,48.0921176 L24.3817455,48.0921176 C24.7028136,48.0921176 24.9612909,47.8285882 24.9612909,47.5038824 C24.9612909,47.1791765 24.7028136,46.9156471 24.3817455,46.9156471 L14.5793136,46.9156471 C14.2594045,46.9156471 13.9997682,47.1791765 13.9997682,47.5038824 C13.9997682,47.5050588 14.0009273,47.5062353 14.0009273,47.5074118 L14.0009273,57.4532941 C14.0009273,57.778 14.2594045,58.0415294 14.5804727,58.0415294 C14.9003818,58.0415294 15.1600182,57.778 15.1600182,57.4532941 L15.1600182,48.0921176 L15.4034273,48.0921176 C19.0070409,58.8144706 28.8662682,66.0003529 40.0654045,66.0003529 C51.3816091,66.0003529 61.3416773,58.6674118 64.8490864,47.7556471 C64.9476091,47.4462353 64.7830182,47.1144706 64.4781773,47.0132941"/>
    <path fill="#9CA5B3" d="M65.419067,21.923499 C65.0983919,21.923499 64.8381339,22.1858587 64.8381339,22.5091234 L64.8381339,31.8275798 L64.5929802,31.8275798 C60.9830623,21.1516459 51.0990677,14 39.8731177,14 C28.5286574,14 18.5447422,21.2992233 15.0289355,32.162557 C14.929015,32.4705955 15.0963237,32.8008877 15.4007327,32.9016151 C15.7063034,32.9988288 16.0339497,32.8336827 16.1338701,32.5268154 C19.492825,22.144865 29.0329073,15.1712489 39.8731177,15.1712489 C50.4658506,15.1712489 59.8002827,21.839169 63.3555928,31.8275798 L55.5931656,31.8275798 C55.2724906,31.8275798 55.0122326,32.0899396 55.0122326,32.4132043 C55.0122326,32.736469 55.2724906,32.9988288 55.5931656,32.9988288 L65.4132576,32.9988288 C65.4155814,32.9988288 65.4167432,33 65.419067,33 C65.739742,33 66,32.7376402 66,32.4143755 L66,22.5091234 C66,22.1858587 65.739742,21.923499 65.419067,21.923499"/>
  </g>
</svg>
