<svg xmlns="http://www.w3.org/2000/svg" xmlns:xlink="http://www.w3.org/1999/xlink" width="87" height="87" viewBox="0 0 87 87">
  <defs>
    <polygon id="datasheet-icon-a" points="0 86.639 86.64 86.639 86.64 0 0 0"/>
  </defs>
  <g fill="none" fill-rule="evenodd">
    <path fill="#F7971D" d="M86.64,43.3188 C86.64,67.2438 67.244,86.6388 43.321,86.6388 C19.396,86.6388 0,67.2438 0,43.3188 C0,19.3938 19.396,0.0008 43.321,0.0008 C67.244,0.0008 86.64,19.3938 86.64,43.3188"/>
    <mask id="datasheet-icon-b" fill="#fff">
      <use xlink:href="#datasheet-icon-a"/>
    </mask>
    <path fill="#FEFEFE" d="M28.199,63.827 L59.473,63.827 L59.473,24.357 L28.199,24.357 L28.199,63.827 Z M29.449,62.577 L58.223,62.577 L58.223,25.607 L29.449,25.607 L29.449,62.577 Z" mask="url(#datasheet-icon-b)"/>
    <path fill="#FEFEFE" d="M37.8548,54.7641 L37.8548,48.7761 C34.5638,48.7761 31.8948,51.4441 31.8948,54.7351 C31.8948,54.7441 31.8968,54.7541 31.8968,54.7641 L31.8948,54.7641 C31.8948,58.0561 34.5638,60.7241 37.8548,60.7241 C41.1468,60.7241 43.8148,58.0561 43.8148,54.7641 L37.8548,54.7641 Z" mask="url(#datasheet-icon-b)"/>
    <path fill="#FEFEFE" d="M44.3343 53.3452C44.0143 50.7402 41.9713 48.6962 39.3653 48.3762L39.2963 48.3672 39.2963 53.4142 44.3423 53.4142 44.3343 53.3452zM62.0736 61.6831C61.7286 61.6831 61.4486 61.4041 61.4486 61.0581L61.4486 22.2131 30.7996 22.2131C30.4546 22.2131 30.1746 21.9331 30.1746 21.5881 30.1746 21.2441 30.4546 20.9631 30.7996 20.9631L62.6986 20.9631 62.6986 61.0581C62.6986 61.4041 62.4186 61.6831 62.0736 61.6831" mask="url(#datasheet-icon-b)"/>
    <path fill="#FEFEFE" d="M55.8978 30.1987L32.4938 30.1987C32.1488 30.1987 31.8688 29.9197 31.8688 29.5737 31.8688 29.2287 32.1488 28.9487 32.4938 28.9487L55.8978 28.9487C56.2428 28.9487 56.5228 29.2287 56.5228 29.5737 56.5228 29.9197 56.2428 30.1987 55.8978 30.1987M55.8978 43.5376L32.4938 43.5376C32.1488 43.5376 31.8688 43.2576 31.8688 42.9126 31.8688 42.5676 32.1488 42.2876 32.4938 42.2876L55.8978 42.2876C56.2428 42.2876 56.5228 42.5676 56.5228 42.9126 56.5228 43.2576 56.2428 43.5376 55.8978 43.5376M55.8978 39.0913L32.4938 39.0913C32.1488 39.0913 31.8688 38.8113 31.8688 38.4663 31.8688 38.1213 32.1488 37.8413 32.4938 37.8413L55.8978 37.8413C56.2428 37.8413 56.5228 38.1213 56.5228 38.4663 56.5228 38.8113 56.2428 39.0913 55.8978 39.0913M55.8978 34.645L32.4938 34.645C32.1488 34.645 31.8688 34.366 31.8688 34.02 31.8688 33.675 32.1488 33.395 32.4938 33.395L55.8978 33.395C56.2428 33.395 56.5228 33.675 56.5228 34.02 56.5228 34.366 56.2428 34.645 55.8978 34.645M46.6918 60.0337C46.3468 60.0337 46.0668 59.7547 46.0668 59.4087L46.0668 55.1077C46.0668 54.7627 46.3468 54.4827 46.6918 54.4827 47.0368 54.4827 47.3168 54.7627 47.3168 55.1077L47.3168 59.4087C47.3168 59.7547 47.0368 60.0337 46.6918 60.0337M49.4271 60.0337C49.0821 60.0337 48.8021 59.7547 48.8021 59.4087L48.8021 50.0297C48.8021 49.6847 49.0821 49.4047 49.4271 49.4047 49.7721 49.4047 50.0521 49.6847 50.0521 50.0297L50.0521 59.4087C50.0521 59.7547 49.7721 60.0337 49.4271 60.0337M52.1625 60.0337C51.8175 60.0337 51.5375 59.7547 51.5375 59.4087L51.5375 48.7747C51.5375 48.4297 51.8175 48.1497 52.1625 48.1497 52.5075 48.1497 52.7875 48.4297 52.7875 48.7747L52.7875 59.4087C52.7875 59.7547 52.5075 60.0337 52.1625 60.0337M54.8978 60.0337C54.5528 60.0337 54.2728 59.7547 54.2728 59.4087L54.2728 52.8257C54.2728 52.4807 54.5528 52.2007 54.8978 52.2007 55.2428 52.2007 55.5228 52.4807 55.5228 52.8257L55.5228 59.4087C55.5228 59.7547 55.2428 60.0337 54.8978 60.0337" mask="url(#datasheet-icon-b)"/>
  </g>
</svg>
