<svg xmlns="http://www.w3.org/2000/svg" width="80" height="81" viewBox="0 0 80 81">
  <g fill="none" fill-rule="evenodd">
    <rect width="80" height="81" fill="#FFF"/>
    <g transform="translate(5 13)">
      <g fill="#9CA5B3">
        <path d="M37.4397896,26.4765663 C36.9379097,28.3903423 36.0781972,30.173945 34.8858036,31.7794159 L34.6068543,32.1528077 L38.2995021,36.2772463 L34.3107566,39.8410262 L30.6249682,35.7234388 L30.2225497,35.9598061 C28.6323104,36.8904311 26.9025964,37.5264533 25.0825669,37.8496029 L24.6378487,37.928392 L24.3097404,43.7953259 L18.9674051,43.4984394 L19.2852243,37.7970768 L18.8164981,37.6885991 C16.6992277,37.2010201 14.7442965,36.2966581 13.0088664,34.9983506 L12.6338855,34.7185922 L8.51138154,38.4011266 L4.94448961,34.4171382 L9.07385295,30.7288944 L8.83948986,30.3269558 C7.83458666,28.6004466 7.17951324,26.7323454 6.89256135,24.7728945 L6.82511051,24.3115786 L1.20611249,23.997564 L1.50335349,18.6604583 L7.12349474,18.9744728 L7.24239114,18.5234337 C7.74427112,16.6107996 8.6028403,14.8271968 9.79523398,13.2205841 L10.0741832,12.8460504 L6.38153549,8.72275369 L10.370281,5.15897384 L14.0572125,9.27656119 L14.4596311,9.04019386 C16.0510137,8.10842701 17.7795844,7.47240478 19.5973274,7.15039712 L20.0431889,7.07160801 L20.3712972,1.20353219 L25.7136324,1.50156056 L25.3958132,7.20406506 L25.8645394,7.31140095 C27.9818099,7.79897993 29.9355978,8.70334188 31.6721711,10.0005075 L32.0471521,10.2802659 L36.169656,6.59887335 L39.7365479,10.5828618 L35.6071846,14.2711056 L35.8415477,14.6741861 C36.8464509,16.3995534 37.5015243,18.2687965 37.7884762,20.2271055 L37.855927,20.6895633 L43.7950307,21.0195641 L43.4966465,26.3566698 L37.558686,26.0255272 L37.4397896,26.4765663 Z M44.5747167,27.560202 L45,19.9439214 L38.844825,19.6013601 C38.5327219,17.8166155 37.933667,16.1060925 37.0590925,14.506331 L41.3507952,10.6730696 L36.2588283,4.9865513 L31.978558,8.81067776 C30.3403028,7.65738791 28.5317057,6.81925449 26.5904934,6.31340557 L26.9197449,0.425917938 L19.293227,0 L18.9513998,6.11243625 C17.3154311,6.44700449 15.7514862,7.02136568 14.2892892,7.82410109 L10.4594533,3.54665178 L4.76728825,8.63254587 L8.60398354,12.9179883 C7.55563742,14.4149813 6.77023525,16.0467152 6.26263909,17.7835012 L0.425283268,17.4569261 L0,25.0732066 L5.83506936,25.3997818 C6.14831563,27.1833845 6.74737056,28.8939075 7.62194502,30.493669 L3.33024237,34.3269304 L8.42220924,40.0134487 L12.7024795,36.1881804 C14.3407347,37.3426121 16.1493318,38.1807455 18.0905442,38.6865944 L17.7612926,44.5740821 L25.3878106,45 L25.7296377,38.8887056 C27.3656064,38.5529955 28.9306946,37.9774925 30.3928916,37.1758989 L34.2215843,41.4533482 L39.9137493,36.368596 L36.077054,32.0808699 C37.1254001,30.5861605 37.9119455,28.9544267 38.4195417,27.2164988 L44.5747167,27.560202 Z"/>
        <path d="M26.8004103,23.0599897 C26.277719,25.4250034 24.1490776,27.0290996 21.7282485,26.9100372 C21.467444,26.8948838 21.2044751,26.859165 20.9393418,26.8007162 C18.2945022,26.2162277 16.6160463,23.5860294 17.1982573,20.9385129 C17.7036338,18.6481838 19.7446188,17.0830535 22.0031214,17.0830535 C22.3526644,17.0830535 22.7065362,17.120937 23.0614901,17.1977864 C24.3406229,17.4813716 25.4347034,18.247701 26.1424469,19.3560644 C26.8491082,20.4655101 27.0839405,21.7806093 26.8004103,23.0599897 M27.0536396,18.774823 C26.192227,17.4218403 24.8557389,16.4866587 23.2941581,16.1413776 C20.0595322,15.4291675 16.8541251,17.4781244 16.1409707,20.7057999 C15.4299807,23.9367225 17.478541,27.1438326 20.7055916,27.857125 C21.0226694,27.9274801 21.3462402,27.9729403 21.6687288,27.9902585 C21.7823574,27.9967528 21.8959859,28 22.0085323,28 C24.8146162,28 27.2430205,26.0668584 27.8576968,23.2937851 C28.201829,21.7319019 27.9172165,20.1267233 27.0536396,18.774823"/>
      </g>
      <g fill="#6AC9CF" transform="translate(40 24)">
        <path d="M20.801333,18.0595867 C20.2786494,20.4247934 18.1457108,22.0322679 15.7292461,21.9099483 C15.4673633,21.8947936 15.2043982,21.859072 14.9392689,21.8006183 C12.2944683,21.2160822 10.6160372,18.5856693 11.1982396,15.9379369 C11.7046908,13.647421 13.7456457,12.082163 16.0041149,12.082163 C16.3525707,12.082163 16.7064372,12.1200496 17.0603037,12.1969053 C19.7072686,12.782524 21.3846176,15.4129368 20.801333,18.0595867 M17.2940504,11.1404103 C14.0638009,10.4313895 10.8551947,12.4772662 10.1409687,15.7052049 C9.42998913,18.936391 11.4785192,22.1437627 14.7055222,22.8571134 C15.0225952,22.9274742 15.3461613,22.9729381 15.6686451,22.9902577 C15.782272,22.9967526 15.8958989,23 16.0084436,23 C18.8155682,23 21.2439367,21.0667007 21.8586039,18.2934012 C22.5706656,15.0622151 20.5232177,11.8548434 17.2940504,11.1404103"/>
        <path d="M28.2241479,22.04398 L26.5261771,24.9527542 L23.3507366,22.9601568 L23.0406918,23.3096741 C22.2090555,24.2467523 21.23303,25.0177807 20.13724,25.5972132 L19.7432481,25.8062269 L20.686814,29.7832934 L17.505777,30.5949634 L16.5868356,26.724726 L16.1167317,26.7595617 C14.6717215,26.8605849 13.2535745,26.6608607 11.8925116,26.1545831 L11.4615829,25.993178 L9.54087233,29.2897888 L6.73703784,27.5282677 L8.6611063,24.2281733 L8.32755633,23.9065244 C7.34929232,22.9671239 6.56690497,21.8639959 6.00278018,20.6273314 L5.80802282,20.1988533 L2.13785384,21.1347703 L1.35546649,17.834676 L5.02339688,16.8975978 L5.00660745,16.4238334 C4.95288128,15.0536323 5.15211583,13.6996879 5.59759532,12.3991581 L5.75093876,11.9532622 L2.5687825,9.95718122 L4.26563403,7.04724581 L7.44331311,9.04216561 L7.75223859,8.69148705 C8.58051704,7.75557007 9.55654246,6.98570288 10.6534518,6.40278685 L11.0474437,6.19377313 L10.1049971,2.21786777 L13.2871534,1.40503665 L14.2060947,5.27759634 L14.6761987,5.24276072 C16.1144931,5.13593149 17.5382366,5.33797808 18.8992995,5.84657813 L19.3302282,6.00682198 L21.2520581,2.71253357 L24.0558925,4.47173235 L22.1318241,7.77182669 L22.4653741,8.09347558 C23.4425188,9.03171493 24.2249061,10.1348429 24.7901502,11.3738297 L24.9849076,11.8023079 L28.8643847,10.8118151 L29.6467721,14.1130706 L25.7672949,15.1035634 L25.7852036,15.578489 C25.8400491,16.9452065 25.6408146,18.2991509 25.1964544,19.6008419 L25.0431109,20.0467378 L28.2241479,22.04398 Z M26.9134532,16.0069671 L31,14.9630597 L29.6848281,9.40677843 L25.5960427,10.4506858 C25.0610196,9.38936062 24.376011,8.42325278 23.5566869,7.57094129 L25.5926849,4.07925103 L20.8748556,1.11822338 L18.8422155,4.60062414 C17.6177065,4.20001451 16.3495451,4.01190217 15.0690713,4.05951085 L14.1075968,0 L8.75176921,1.36787866 L9.75129983,5.58763336 C8.82900058,6.12526308 7.98952917,6.78597866 7.24631716,7.56165179 L3.88731225,5.45293563 L1.03199018,10.3496625 L4.39883016,12.4618623 C4.05184864,13.6114377 3.87835789,14.7958488 3.87835789,15.9941941 L0,16.9835257 L1.31852975,22.539807 L5.19576834,21.5504754 C5.73079145,22.6106394 6.41580012,23.575586 7.2362435,24.4290587 L5.20024552,27.920749 L9.91919411,30.884099 L11.9507149,27.3993759 C13.1752239,27.7999855 14.4310731,27.9776471 15.7227397,27.9416503 L16.6853336,32 L22.0422805,30.6332825 L21.039392,26.4135278 C21.9605719,25.8770593 22.8011626,25.2163437 23.5466132,24.4395094 L26.9044988,26.5470644 L29.7609402,21.6514987 L26.3952195,19.5381377 C26.7410817,18.3885623 26.9145725,17.2041512 26.9134532,16.0069671 Z"/>
      </g>
    </g>
  </g>
</svg>
