<svg xmlns="http://www.w3.org/2000/svg" width="80" height="81" viewBox="0 0 80 81">
  <g fill="none" fill-rule="evenodd">
    <rect width="80" height="81" fill="#FFF"/>
    <g transform="translate(5 13)">
      <path fill="#9CA5B3" d="M37.4397896,26.4765663 C36.9379097,28.3903423 36.0781972,30.173945 34.8858036,31.7794159 L34.6068543,32.1528077 L38.2995021,36.2772463 L34.3107566,39.8410262 L30.6249682,35.7234388 L30.2225497,35.9598061 C28.6323104,36.8904311 26.9025964,37.5264533 25.0825669,37.8496029 L24.6378487,37.928392 L24.3097404,43.7953259 L18.9674051,43.4984394 L19.2852243,37.7970768 L18.8164981,37.6885991 C16.6992277,37.2010201 14.7442965,36.2966581 13.0088664,34.9983506 L12.6338855,34.7185922 L8.51138154,38.4011266 L4.94448961,34.4171382 L9.07385295,30.7288944 L8.83948986,30.3269558 C7.83458666,28.6004466 7.17951324,26.7323454 6.89256135,24.7728945 L6.82511051,24.3115786 L1.20611249,23.997564 L1.50335349,18.6604583 L7.12349474,18.9744728 L7.24239114,18.5234337 C7.74427112,16.6107996 8.6028403,14.8271968 9.79523398,13.2205841 L10.0741832,12.8460504 L6.38153549,8.72275369 L10.370281,5.15897384 L14.0572125,9.27656119 L14.4596311,9.04019386 C16.0510137,8.10842701 17.7795844,7.47240478 19.5973274,7.15039712 L20.0431889,7.07160801 L20.3712972,1.20353219 L25.7136324,1.50156056 L25.3958132,7.20406506 L25.8645394,7.31140095 C27.9818099,7.79897993 29.9355978,8.70334188 31.6721711,10.0005075 L32.0471521,10.2802659 L36.169656,6.59887335 L39.7365479,10.5828618 L35.6071846,14.2711056 L35.8415477,14.6741861 C36.8464509,16.3995534 37.5015243,18.2687965 37.7884762,20.2271055 L37.855927,20.6895633 L43.7950307,21.0195641 L43.4966465,26.3566698 L37.558686,26.0255272 L37.4397896,26.4765663 Z M44.5747167,27.560202 L45,19.9439214 L38.844825,19.6013601 C38.5327219,17.8166155 37.933667,16.1060925 37.0590925,14.506331 L41.3507952,10.6730696 L36.2588283,4.9865513 L31.978558,8.81067776 C30.3403028,7.65738791 28.5317057,6.81925449 26.5904934,6.31340557 L26.9197449,0.425917938 L19.293227,0 L18.9513998,6.11243625 C17.3154311,6.44700449 15.7514862,7.02136568 14.2892892,7.82410109 L10.4594533,3.54665178 L4.76728825,8.63254587 L8.60398354,12.9179883 C7.55563742,14.4149813 6.77023525,16.0467152 6.26263909,17.7835012 L0.425283268,17.4569261 L0,25.0732066 L5.83506936,25.3997818 C6.14831563,27.1833845 6.74737056,28.8939075 7.62194502,30.493669 L3.33024237,34.3269304 L8.42220924,40.0134487 L12.7024795,36.1881804 C14.3407347,37.3426121 16.1493318,38.1807455 18.0905442,38.6865944 L17.7612926,44.5740821 L25.3878106,45 L25.7296377,38.8887056 C27.3656064,38.5529955 28.9306946,37.9774925 30.3928916,37.1758989 L34.2215843,41.4533482 L39.9137493,36.368596 L36.077054,32.0808699 C37.1254001,30.5861605 37.9119455,28.9544267 38.4195417,27.2164988 L44.5747167,27.560202 Z"/>
      <path fill="#9CA5B3" d="M26.8004103,23.0599897 C26.277719,25.4250034 24.1490776,27.0290996 21.7282485,26.9100372 C21.467444,26.8948838 21.2044751,26.859165 20.9393418,26.8007162 C18.2945022,26.2162277 16.6160463,23.5860294 17.1982573,20.9385129 C17.7036338,18.6481838 19.7446188,17.0830535 22.0031214,17.0830535 C22.3526644,17.0830535 22.7065362,17.120937 23.0614901,17.1977864 C24.3406229,17.4813716 25.4347034,18.247701 26.1424469,19.3560644 C26.8491082,20.4655101 27.0839405,21.7806093 26.8004103,23.0599897 M27.0536396,18.774823 C26.192227,17.4218403 24.8557389,16.4866587 23.2941581,16.1413776 C20.0595322,15.4291675 16.8541251,17.4781244 16.1409707,20.7057999 C15.4299807,23.9367225 17.478541,27.1438326 20.7055916,27.857125 C21.0226694,27.9274801 21.3462402,27.9729403 21.6687288,27.9902585 C21.7823574,27.9967528 21.8959859,28 22.0085323,28 C24.8146162,28 27.2430205,26.0668584 27.8576968,23.2937851 C28.201829,21.7319019 27.9172165,20.1267233 27.0536396,18.774823"/>
      <path fill="#6AC9CF" d="M60.801333,42.0595867 C60.2786494,44.4247934 58.1457108,46.0322679 55.7292461,45.9099483 C55.4673633,45.8947936 55.2043982,45.859072 54.9392689,45.8006183 C52.2944683,45.2160822 50.6160372,42.5856693 51.1982396,39.9379369 C51.7046908,37.647421 53.7456457,36.082163 56.0041149,36.082163 C56.3525707,36.082163 56.7064372,36.1200496 57.0603037,36.1969053 C59.7072686,36.782524 61.3846176,39.4129368 60.801333,42.0595867 M57.2940504,35.1404103 C54.0638009,34.4313895 50.8551947,36.4772662 50.1409687,39.7052049 C49.4299891,42.936391 51.4785192,46.1437627 54.7055222,46.8571134 C55.0225952,46.9274742 55.3461613,46.9729381 55.6686451,46.9902577 C55.782272,46.9967526 55.8958989,47 56.0084436,47 C58.8155682,47 61.2439367,45.0667007 61.8586039,42.2934012 C62.5706656,39.0622151 60.5232177,35.8548434 57.2940504,35.1404103"/>
      <path fill="#6AC9CF" d="M68.2241479,46.04398 L66.5261771,48.9527542 L63.3507366,46.9601568 L63.0406918,47.3096741 C62.2090555,48.2467523 61.23303,49.0177807 60.13724,49.5972132 L59.7432481,49.8062269 L60.686814,53.7832934 L57.505777,54.5949634 L56.5868356,50.724726 L56.1167317,50.7595617 C54.6717215,50.8605849 53.2535745,50.6608607 51.8925116,50.1545831 L51.4615829,49.993178 L49.5408723,53.2897888 L46.7370378,51.5282677 L48.6611063,48.2281733 L48.3275563,47.9065244 C47.3492923,46.9671239 46.566905,45.8639959 46.0027802,44.6273314 L45.8080228,44.1988533 L42.1378538,45.1347703 L41.3554665,41.834676 L45.0233969,40.8975978 L45.0066075,40.4238334 C44.9528813,39.0536323 45.1521158,37.6996879 45.5975953,36.3991581 L45.7509388,35.9532622 L42.5687825,33.9571812 L44.265634,31.0472458 L47.4433131,33.0421656 L47.7522386,32.691487 C48.580517,31.7555701 49.5565425,30.9857029 50.6534518,30.4027868 L51.0474437,30.1937731 L50.1049971,26.2178678 L53.2871534,25.4050366 L54.2060947,29.2775963 L54.6761987,29.2427607 C56.1144931,29.1359315 57.5382366,29.3379781 58.8992995,29.8465781 L59.3302282,30.006822 L61.2520581,26.7125336 L64.0558925,28.4717323 L62.1318241,31.7718267 L62.4653741,32.0934756 C63.4425188,33.0317149 64.2249061,34.1348429 64.7901502,35.3738297 L64.9849076,35.8023079 L68.8643847,34.8118151 L69.6467721,38.1130706 L65.7672949,39.1035634 L65.7852036,39.578489 C65.8400491,40.9452065 65.6408146,42.2991509 65.1964544,43.6008419 L65.0431109,44.0467378 L68.2241479,46.04398 Z M66.9134532,40.0069671 L71,38.9630597 L69.6848281,33.4067784 L65.5960427,34.4506858 C65.0610196,33.3893606 64.376011,32.4232528 63.5566869,31.5709413 L65.5926849,28.079251 L60.8748556,25.1182234 L58.8422155,28.6006241 C57.6177065,28.2000145 56.3495451,28.0119022 55.0690713,28.0595108 L54.1075968,24 L48.7517692,25.3678787 L49.7512998,29.5876334 C48.8290006,30.1252631 47.9895292,30.7859787 47.2463172,31.5616518 L43.8873122,29.4529356 L41.0319902,34.3496625 L44.3988302,36.4618623 C44.0518486,37.6114377 43.8783579,38.7958488 43.8783579,39.9941941 L40,40.9835257 L41.3185298,46.539807 L45.1957683,45.5504754 C45.7307915,46.6106394 46.4158001,47.575586 47.2362435,48.4290587 L45.2002455,51.920749 L49.9191941,54.884099 L51.9507149,51.3993759 C53.1752239,51.7999855 54.4310731,51.9776471 55.7227397,51.9416503 L56.6853336,56 L62.0422805,54.6332825 L61.039392,50.4135278 C61.9605719,49.8770593 62.8011626,49.2163437 63.5466132,48.4395094 L66.9044988,50.5470644 L69.7609402,45.6514987 L66.3952195,43.5381377 C66.7410817,42.3885623 66.9145725,41.2041512 66.9134532,40.0069671 Z"/>
    </g>
  </g>
</svg>
