<svg xmlns="http://www.w3.org/2000/svg" width="80" height="81" viewBox="0 0 80 81">
  <g fill="none" fill-rule="evenodd">
    <rect width="80" height="81" fill="#FFF"/>
    <g fill="#9CA5B3" transform="translate(6 13)">
      <path d="M36.842625,26.0859375 C36.34875,27.9714375 35.50275,29.7286875 34.329375,31.3104375 L34.054875,31.6783125 L37.688625,35.7418125 L33.7635,39.2529375 L30.1365,35.1961875 L29.7405,35.4290625 C28.175625,36.3459375 26.4735,36.9725625 24.6825,37.2909375 L24.244875,37.3685625 L23.922,43.1488125 L18.664875,42.8563125 L18.977625,37.2391875 L18.516375,37.1323125 C16.432875,36.6519375 14.509125,35.7609375 12.801375,34.4818125 L12.432375,34.2061875 L8.375625,37.8343125 L4.865625,33.9091875 L8.929125,30.2754375 L8.6985,29.8794375 C7.709625,28.1784375 7.065,26.3379375 6.782625,24.4074375 L6.71625,23.9529375 L1.186875,23.6435625 L1.479375,18.3853125 L7.009875,18.6946875 L7.126875,18.2503125 C7.62075,16.3659375 8.465625,14.6086875 9.639,13.0258125 L9.9135,12.6568125 L6.27975,8.5944375 L10.204875,5.0833125 L13.833,9.1400625 L14.229,8.9071875 C15.795,7.9891875 17.496,7.3625625 19.28475,7.0453125 L19.7235,6.9676875 L20.046375,1.1863125 L25.3035,1.4799375 L24.99075,7.0981875 L25.452,7.2039375 C27.5355,7.6843125 29.458125,8.5753125 31.167,9.8533125 L31.536,10.1289375 L35.59275,6.5019375 L39.10275,10.4270625 L35.03925,14.0608125 L35.269875,14.4579375 C36.25875,16.1578125 36.903375,17.9994375 37.18575,19.9288125 L37.252125,20.3844375 L43.0965,20.7095625 L42.802875,25.9678125 L36.959625,25.6415625 L36.842625,26.0859375 Z M43.86375,27.1535625 L44.28225,19.6498125 L38.22525,19.3123125 C37.918125,17.5539375 37.328625,15.8686875 36.468,14.2925625 L40.69125,10.5159375 L35.6805,4.9134375 L31.4685,8.6810625 C29.856375,7.5448125 28.076625,6.7190625 26.166375,6.2206875 L26.490375,0.4201875 L18.9855,0.0005625 L18.649125,6.0226875 C17.03925,6.3523125 15.50025,6.9181875 14.061375,7.7090625 L10.292625,3.4948125 L4.69125,8.5055625 L8.46675,12.7276875 C7.435125,14.2025625 6.66225,15.8101875 6.16275,17.5213125 L0.4185,17.1995625 L0,24.7033125 L5.742,25.0250625 C6.05025,26.7823125 6.63975,28.4675625 7.500375,30.0436875 L3.277125,33.8203125 L8.287875,39.4228125 L12.499875,35.6540625 C14.112,36.7914375 15.89175,37.6171875 17.802,38.1155625 L17.478,43.9160625 L24.982875,44.3356875 L25.31925,38.3146875 C26.929125,37.9839375 28.46925,37.4169375 29.908125,36.6271875 L33.67575,40.8414375 L39.277125,35.8318125 L35.501625,31.6074375 C36.53325,30.1348125 37.30725,28.5271875 37.80675,26.8149375 L43.86375,27.1535625 Z"/>
      <path d="M27.13185,23.2788375 C26.588475,25.7369625 24.3756,27.4042125 21.858975,27.2804625 C21.58785,27.2647125 21.314475,27.2275875 21.03885,27.1668375 C18.28935,26.5593375 16.544475,23.8255875 17.149725,21.0738375 C17.6751,18.6933375 19.79685,17.0665875 22.144725,17.0665875 C22.5081,17.0665875 22.875975,17.1059625 23.244975,17.1858375 C24.574725,17.4805875 25.7121,18.2770875 26.44785,19.4290875 C27.182475,20.5822125 27.4266,21.9490875 27.13185,23.2788375 M23.48685,16.0878375 C20.124225,15.3475875 16.791975,17.4772125 16.0506,20.8319625 C15.311475,24.1900875 17.4411,27.5234625 20.79585,28.2648375 C21.125475,28.3379625 21.46185,28.3852125 21.7971,28.4032125 C21.915225,28.4099625 22.03335,28.4133375 22.15035,28.4133375 C25.067475,28.4133375 27.591975,26.4040875 28.230975,23.5218375 C28.588725,21.8984625 28.29285,20.2300875 27.3951,18.8249625 C26.4996,17.4187125 25.110225,16.4467125 23.48685,16.0878375"/>
    </g>
    <g fill="#6AC9CF" transform="translate(45 36)">
      <path d="M20.256175,17.641231 C19.721425,20.1276103 17.5392464,21.8174379 15.0669964,21.6888517 C14.7990679,21.6729207 14.5300321,21.635369 14.2587821,21.5739207 C11.552925,20.9594379 9.83574643,18.1942655 10.4313893,15.4108862 C10.9495321,13.0030241 13.0376036,11.3575759 15.3482107,11.3575759 C15.7047107,11.3575759 16.0667464,11.3974034 16.4287821,11.4781966 C19.1368536,12.0938172 20.852925,14.8589897 20.256175,17.641231 M16.667925,10.3675759 C13.3631036,9.62223103 10.080425,11.7729207 9.34971071,15.166231 C8.62231786,18.5629552 10.7181393,21.9346448 14.0196393,22.6845414 C14.3440321,22.7585069 14.6750679,22.8063 15.0049964,22.8245069 C15.1212464,22.8313345 15.2374964,22.8347483 15.3526393,22.8347483 C18.2245679,22.8347483 20.7089964,20.8024034 21.3378536,17.8870241 C22.0663536,14.4903 19.9716393,11.1186103 16.667925,10.3675759"/>
      <path d="M27.9283429,22.4491034 L26.2488071,25.2996207 L23.1078429,23.346931 L22.8011643,23.6894483 C21.9785571,24.6077586 21.0131286,25.3633448 19.9292357,25.9311724 L19.5395214,26.136 L20.4728429,30.0334138 L17.3263429,30.8288276 L16.4173786,27.0361034 L15.9523786,27.0702414 C14.5230571,27.1692414 13.1203071,26.9735172 11.7740214,26.4773793 L11.3477714,26.3192069 L9.44791429,29.5497931 L6.67452143,27.8235517 L8.5777,24.5895517 L8.24777143,24.2743448 C7.28012857,23.3537586 6.50623571,22.2727241 5.94823571,21.0608276 L5.75559286,20.640931 L2.12527143,21.5581034 L1.35137857,18.3241034 L4.97948571,17.4057931 L4.96287857,16.9415172 C4.90973571,15.5987586 5.10680714,14.271931 5.54745,12.9974483 L5.69912857,12.5604828 L2.55152143,10.6043793 L4.22995,7.75272414 L7.37312857,9.70768966 L7.6787,9.36403448 C8.49798571,8.44686207 9.46341429,7.69241379 10.5484143,7.12117241 L10.9381286,6.91634483 L10.0059143,3.02006897 L13.1535214,2.22351724 L14.0624857,6.01851724 L14.5274857,5.98437931 C15.9501643,5.87968966 17.35845,6.07768966 18.7047357,6.57610345 L19.1309857,6.73313793 L21.03195,3.50482759 L23.8053429,5.2287931 L21.9021643,8.4627931 L22.2320929,8.778 C23.1986286,9.69744828 23.9725214,10.7784828 24.5316286,11.9926552 L24.7242714,12.4125517 L28.5616286,11.4418966 L29.3355214,14.6770345 L25.4981643,15.6476897 L25.5158786,16.1131034 C25.5701286,17.4524483 25.3730571,18.7792759 24.9335214,20.0548966 L24.7818429,20.4918621 L27.9283429,22.4491034 Z M26.6318786,16.533 L30.6740571,15.51 L29.3731643,10.065 L25.3287714,11.088 C24.7995571,10.047931 24.1219857,9.10117241 23.3115571,8.26593103 L25.32545,4.84417241 L20.6588429,1.94244828 L18.6482714,5.35510345 C17.4370571,4.96251724 16.1826643,4.77817241 14.9160929,4.82482759 L13.9650571,0.84662069 L8.66737857,2.18710345 L9.65605714,6.32234483 C8.74377143,6.8492069 7.91341429,7.49668966 7.17827143,8.25682759 L3.85573571,6.19034483 L1.03141429,10.989 L4.3617,13.0588966 C4.01848571,14.1854483 3.84687857,15.3461379 3.84687857,16.5204828 L0.0106285714,17.49 L1.31484286,22.935 L5.14998571,21.9654828 C5.6792,23.0044138 6.35677143,23.9500345 7.16830714,24.7864138 L5.15441429,28.2081724 L9.82212857,31.1121724 L11.8315929,27.6972414 C13.0428071,28.0898276 14.2850214,28.263931 15.5626643,28.2286552 L16.5148071,32.2057241 L21.8135929,30.8663793 L20.8215929,26.7311379 C21.7327714,26.2054138 22.5642357,25.557931 23.3015929,24.7966552 L26.6230214,26.862 L29.44845,22.0644828 L26.1192714,19.9934483 C26.4613786,18.8668966 26.6329857,17.7062069 26.6318786,16.533 Z"/>
    </g>
  </g>
</svg>
