<svg xmlns="http://www.w3.org/2000/svg" xmlns:xlink="http://www.w3.org/1999/xlink" width="80" height="80" viewBox="0 0 80 80">
  <defs>
    <polygon id="graph-icon-a" points="0 .584 7.415 .584 7.415 8 0 8"/>
  </defs>
  <g fill="none" fill-rule="evenodd">
    <rect width="80" height="80" fill="#FFF"/>
    <g transform="translate(5 21)">
      <path fill="#FBB817" d="M11.8776656 23.2419256L5.12098482 32.0539066C4.91729076 32.3189553 4.97690853 32.6909745 5.25388277 32.8847097 5.36442405 32.9631547 5.49359589 33 5.62028365 33 5.81155734 33 6.00034695 32.9156123 6.12206657 32.7575338L12.8799894 23.9455529C13.0824414 23.6805041 13.0228237 23.3084849 12.7458494 23.1147497 12.4726013 22.9222031 12.0838438 22.9768768 11.8776656 23.2419256M64.7461566 6.11441019C64.4729509 5.92185692 64.0830119 5.97772114 63.8781076 6.24159043L57.119992 15.0538741C56.9175714 15.318932 56.9771799 15.6909639 57.2541111 15.8858944 57.3646352 15.9631534 57.4925452 16 57.621697 16 57.8116991 16 57.9992176 15.916798 58.1221602 15.7575255L64.879034 6.94524189C65.0826964 6.68137259 65.0230879 6.30934066 64.7461566 6.11441019M38.8865702 12.2419863L29.1190584 25.0556714C28.9182127 25.3190394 28.9773574 25.6903646 29.2521341 25.8849248 29.3617984 25.962037 29.4887132 26 29.6168602 26 29.8053842 26 29.9914437 25.9157697 30.1134298 25.7579861L39.8809416 12.944301C40.0817873 12.6797466 40.0226426 12.3084214 39.7478659 12.1150476 39.4767857 11.9216738 39.0898803 11.9774319 38.8865702 12.2419863M25.7076833 25.8498789L17.8729593 21.0819251C17.5958506 20.9132243 17.239568 21.0129671 17.0777272 21.3085015 16.9170508 21.6028044 17.0136895 21.9796107 17.2919625 22.1495429L25.1278509 26.9174967C25.218668 26.9729094 25.3187997 27 25.4177671 27 25.6191948 27 25.814801 26.8891746 25.9230829 26.6909204 26.0825951 26.3966174 25.9859563 26.0198112 25.7076833 25.8498789M51.7076455 15.8498276L43.8719078 11.0816612C43.5959277 10.9129528 43.2384345 11.0139315 43.0777373 11.3082476 42.91704 11.6037951 43.0136913 11.9806182 43.2920003 12.150558L51.127738 16.917493C51.2185669 16.9729081 51.3187116 17 51.4176918 17 51.6191456 17 51.814777 16.8891697 51.923073 16.6909066 52.0826058 16.3965905 51.9859545 16.0197674 51.7076455 15.8498276"/>
      <path fill="#6AC9CF" d="M17.3968806 21.3783649C17.0269317 22.0195926 16.4313141 22.477084 15.7173128 22.6694523 15.0057778 22.8642869 14.2597143 22.7656365 13.6197028 22.3969305 12.9784581 22.0282246 12.5209547 21.4326226 12.3285813 20.7198732 11.9315028 19.2475156 12.8058153 17.7258327 14.2794449 17.3287648 14.5199116 17.2634089 14.7603784 17.2325806 14.9983788 17.2325806 16.2179769 17.2325806 17.3376887 18.0464466 17.6706427 19.279577 17.861783 19.9923263 17.7655963 20.7383702 17.3968806 21.3783649M13.9588226 16.1375608C11.8291503 16.7121996 10.5639252 18.9121041 11.1385791 21.0404871 11.4148076 22.0713841 12.0782492 22.9333422 13.0031214 23.4660546 13.6197028 23.8187298 14.2991755 24 14.9909799 24 15.3399649 24 15.6914164 23.953141 16.0379351 23.8606563 17.0700924 23.5819688 17.9320732 22.9197778 18.4647996 21.9936969 18.9987591 21.0688491 19.1381065 19.9898601 18.8606449 18.9589631 18.2872241 16.8305801 16.0872616 15.5653883 13.9588226 16.1375608M28.7190217 30.6706864C27.2452177 31.0677541 25.7245481 30.1922321 25.328656 28.7186423 24.9327639 27.2475188 25.8071798 25.7258369 27.2797504 25.3287692 27.5202456 25.2634133 27.7619741 25.2325851 27.9987694 25.2325851 29.2185117 25.2325851 30.338356 26.0464506 30.6713494 27.2795801 31.0672415 28.7519368 30.1915923 30.2736186 28.7190217 30.6706864M26.9590901 24.1375661C24.8303993 24.7122044 23.5637912 26.9121075 24.1385131 29.0404891 24.6195035 30.8223613 26.2376045 32 28.001236 32 28.3440958 32 28.6931222 31.9556073 29.0396819 31.8618895 31.1696061 31.2872511 32.4362141 29.087348 31.8614923 26.9577333 31.2867704 24.8305849 29.087781 23.565394 26.9590901 24.1375661M41.7193577 11.6697285C41.0064685 11.8620569 40.2602784 11.7646598 39.6201582 11.3960303 38.9788047 11.0274009 38.5212236 10.4319225 38.3288175 9.71808822 37.9329051 8.24726901 38.8073659 6.72590194 40.278779 6.3276835 40.5180532 6.26357403 40.7610275 6.23275217 40.9978349 6.23275217 42.2164066 6.23275217 43.337542 7.0464493 43.6717858 8.27932375 44.0664649 9.75137583 43.1907707 11.2727429 41.7193577 11.6697285zM44.86199 7.95754352C44.2860052 5.8308351 42.0856692 4.56467304 39.9568688 5.13795966 37.8293018 5.71247915 36.5638619 7.91192716 37.1386134 10.0398685 37.4161221 11.0705515 38.078443 11.9323307 39.0047055 12.4649325 39.6201582 12.8187675 40.3034464 13 40.9941348 13 41.3419458 13 41.6934568 12.9531508 42.0400344 12.8606852 44.1688348 12.2861657 45.435508 10.0867177 44.86199 7.95877639L44.86199 7.95754352zM56.7193194 20.6697285C56.0039553 20.8620569 55.2589898 20.7646598 54.6200955 20.3960303 53.9787345 20.0274009 53.5211481 19.4331554 53.3287398 18.7180882 52.9328228 17.247269 53.8072938 15.7259019 55.2799573 15.3289164 55.5192343 15.263574 55.7622115 15.2327522 55.9990217 15.2327522 57.2176076 15.2327522 58.3375226 16.0464493 58.6717704 17.2793237 59.066454 18.7513758 58.1907496 20.2727429 56.7193194 20.6697285zM59.8619884 16.9575435C59.2859969 14.8308351 57.0844019 13.564673 54.9592768 14.1379597 52.8304517 14.7124792 51.5637637 16.9119272 52.1385218 19.0398685 52.4160338 20.0705515 53.0783624 20.9323307 54.0046357 21.4649325 54.6200955 21.8187675 55.3021583 22 55.9928548 22 56.3419032 22 56.6934183 21.9543836 57.04 21.8606852 59.1688251 21.2861657 60.4355131 19.0867177 59.8619884 16.9587764L59.8619884 16.9575435zM68.3960807 5.3802457C68.0286148 6.02008216 67.4330241 6.47869327 66.7202883 6.66978123 65.2491916 7.07044953 63.7263044 6.19391057 63.3280108 4.72068403 62.9309504 3.24869032 63.8076895 1.72861642 65.2800193 1.33041376 65.519242 1.26630683 65.7621641 1.23425337 66.0038531 1.23425337 66.4810655 1.23425337 66.9533455 1.35876875 67.3787674 1.60410104 68.01875 1.97271588 68.4762327 2.56817062 68.6698305 3.28074379L68.6698305 3.28197661C68.8621952 3.99454978 68.7647797 4.73917641 68.3960807 5.3802457M69.8597788 2.96020914C69.5823297 1.92956698 68.9201512 1.06782192 67.9940878.535241281 67.0680245.00142781738 65.9878227-.139114296 64.9594114.140737105 62.8298356.714000987 61.5646678 2.91336177 62.1380626 5.0424515 62.6189743 6.8226516 64.2380438 8 66.0001538 8 66.3441906 8 66.6931599 7.95438545 67.039663 7.86069071 68.0717736 7.58330496 68.9337154 6.92004482 69.4651845 5.99542565 69.9991199 5.06957366 70.138461 3.99208413 69.8597788 2.96020914"/>
      <g transform="translate(0 30)">
        <mask id="graph-icon-b" fill="#fff">
          <use xlink:href="#graph-icon-a"/>
        </mask>
        <path fill="#6AC9CF" d="M4.37508571,6.76731429 C3.71337143,6.94445714 3.02308571,6.85645714 2.4288,6.5136 C1.83565714,6.17188571 1.41051429,5.61988571 1.23222857,4.95931429 C1.05508571,4.2976 1.14422857,3.60731429 1.48594286,3.01302857 C1.82765714,2.41988571 2.37965714,1.99588571 3.04137143,1.8176 C3.26308571,1.75702857 3.48937143,1.72731429 3.71337143,1.72731429 C4.15565714,1.72731429 4.59222857,1.84274286 4.98651429,2.07017143 C5.57965714,2.41074286 6.0048,2.96274286 6.18308571,3.62445714 C6.54994286,4.98902857 5.73851429,6.39931429 4.37508571,6.76731429 Z M7.28708571,3.32731429 C7.0288,2.37074286 6.41394286,1.57302857 5.55565714,1.07931429 C4.69851429,0.5856 3.69851429,0.456457143 2.74422857,0.7136 C1.78765714,0.971885714 0.989942857,1.5856 0.495085714,2.44388571 C0.00137142857,3.30102857 -0.127771429,4.29988571 0.129371429,5.25645714 C0.386514286,6.21188571 1.00137143,7.01074286 1.85965714,7.50445714 C2.4288,7.83245714 3.06194286,8.00045714 3.70194286,8.00045714 C4.02537143,8.00045714 4.35108571,7.95817143 4.67222857,7.87131429 C6.6448,7.33874286 7.81737143,5.29988571 7.28708571,3.32731429 Z" mask="url(#graph-icon-b)"/>
      </g>
    </g>
  </g>
</svg>
