<svg xmlns="http://www.w3.org/2000/svg" width="80" height="80" viewBox="0 0 80 80">
  <g fill="none" fill-rule="evenodd">
    <rect width="80" height="80" fill="#FFF"/>
    <g transform="translate(8 17)">
      <path fill="#6AC9CF" d="M4.53716948,8.90357326 C4.53716948,4.87488749 7.81419128,1.59786568 11.8417117,1.59786568 C15.8703975,1.59786568 19.1474193,4.87488749 19.1474193,8.90357326 C19.1474193,12.9299283 15.8738936,16.2057847 11.8475385,16.2092808 L11.8428771,16.2092808 L11.8358848,16.2092808 C7.81069517,16.2057847 4.53716948,12.9299283 4.53716948,8.90357326 M20.6402589,19.528256 C19.21268,18.1496227 17.3457565,17.1648846 15.2748931,16.6416333 C18.2384303,15.3201032 20.3127898,12.3519045 20.3127898,8.90357326 C20.3127898,4.23276835 16.5125166,0.432495194 11.8417117,0.432495194 C7.17090678,0.432495194 3.37179899,4.23276835 3.37179899,8.90357326 C3.37179899,12.3495738 5.44149697,15.3142763 8.39920727,16.6369718 C3.75870199,17.8198229 0.383789062,21.3287534 0.383789062,25.4623225 C0.383789062,25.7839648 0.643666681,26.0450077 0.966474306,26.0450077 C1.28811656,26.0450077 1.54915955,25.7839648 1.54915955,25.4623225 C1.54915955,21.003615 6.16402668,17.3769821 11.8358848,17.3746513 C11.8382156,17.3746513 11.8393809,17.3746513 11.8417117,17.3746513 C11.8440424,17.3746513 11.8452078,17.3746513 11.8475385,17.3746513 C14.9532509,17.3758167 17.863181,18.4666035 19.8303264,20.3661574 C20.0634005,20.5899085 20.4328229,20.5840816 20.6542433,20.3521729 C20.8779944,20.1202642 20.8721676,19.7520071 20.6402589,19.528256"/>
      <path fill="#9CA5B3" d="M47.6831471,8.90357326 C47.6831471,4.87488749 50.9601689,1.59786568 54.9876894,1.59786568 C59.0152098,1.59786568 62.2922316,4.87488749 62.2922316,8.90357326 C62.2922316,12.9299283 59.0187059,16.2057847 54.9923508,16.2092808 L54.9876894,16.2092808 L54.9818625,16.2092808 C50.9566728,16.2057847 47.6831471,12.9299283 47.6831471,8.90357326 M58.4290284,16.6369718 C61.3879041,15.3142763 63.457602,12.3484084 63.457602,8.90357326 C63.457602,4.23276835 59.6573289,0.432495194 54.9876894,0.432495194 C50.3168844,0.432495194 46.5177767,4.23276835 46.5177767,8.90357326 C46.5177767,12.3519045 48.5909708,15.3201032 51.5545079,16.6416333 C49.4836445,17.1648846 47.6155557,18.1496227 46.1903075,19.528256 C45.9595642,19.7520071 45.952572,20.1202642 46.1763231,20.3521729 C46.3989089,20.5840816 46.7671659,20.5899085 47.00024,20.3661574 C48.9673854,18.4666035 51.8761502,17.3758167 54.9818625,17.3746513 C54.9830279,17.3746513 54.9853586,17.3746513 54.9876894,17.3746513 C54.9900201,17.3746513 54.9911855,17.3746513 54.9935162,17.3746513 C60.6665397,17.3769821 65.2814069,21.003615 65.2814069,25.4623225 C65.2814069,25.7839648 65.5412845,26.0450077 65.8640921,26.0450077 C66.1857344,26.0450077 66.4467773,25.7839648 66.4467773,25.4623225 C66.4467773,21.327588 63.070699,17.8198229 58.4290284,16.6369718"/>
      <path fill="#FBB817" d="M20.9729721,20.5128775 C20.9729721,13.6674913 26.5411123,8.09935109 33.3853332,8.09935109 C40.229554,8.09935109 45.7988596,13.6674913 45.7988596,20.5128775 C45.7988596,27.3536023 40.2365463,32.9194117 33.3981523,32.9252386 L33.3853332,32.9252386 L33.3736795,32.9252386 C26.5341201,32.9194117 20.9729721,27.3536023 20.9729721,20.5128775 M37.6750619,33.3867253 C43.0649004,31.5850625 46.9642301,26.5005511 46.9642301,20.5128775 C46.9642301,13.0253721 40.8728386,6.9339806 33.3853332,6.9339806 C25.8989932,6.9339806 19.8076016,13.0253721 19.8076016,20.5128775 C19.8076016,26.5005511 23.7069313,31.5850625 29.0967698,33.3867253 C21.8609844,34.9180221 16.5014456,40.2099695 16.5014456,46.5041355 C16.5014456,46.8257777 16.7624886,47.0868207 17.0841308,47.0868207 C17.4057731,47.0868207 17.6668161,46.8257777 17.6668161,46.5041355 C17.6668161,39.6634107 24.7114807,34.0964359 33.3736795,34.090609 C33.378341,34.090609 33.3806717,34.0917744 33.3853332,34.0917744 C33.3899947,34.0917744 33.3934908,34.090609 33.3981523,34.090609 C42.0591857,34.0964359 49.1038503,39.6634107 49.1038503,46.5041355 C49.1038503,46.8257777 49.3637279,47.0868207 49.6865355,47.0868207 C50.0081778,47.0868207 50.2692208,46.8257777 50.2692208,46.5041355 C50.2692208,40.2099695 44.9096819,34.9191875 37.6750619,33.3867253"/>
    </g>
  </g>
</svg>
