<svg xmlns="http://www.w3.org/2000/svg" xmlns:xlink="http://www.w3.org/1999/xlink" width="229" height="79" viewBox="0 0 229 79">
  <defs>
    <polygon id="group-service-icon-a" points="0 .738 9.38 .738 9.38 10.098 0 10.098"/>
  </defs>
  <g fill="none" fill-rule="evenodd">
    <g fill="#53627D" transform="translate(0 8.262)">
      <path d="M47.3635893,33.4212394 C46.7286809,35.8369895 45.6410929,38.0884224 44.1326431,40.1150004 L43.7797555,40.5863311 L48.4511773,45.7925896 L43.405174,50.2911314 L38.7424297,45.0935211 L38.233346,45.3918864 C36.2215974,46.5666098 34.0334051,47.3694575 31.7309582,47.7773676 L31.1683628,47.8768227 L30.753286,55.2826245 L23.9949101,54.9078662 L24.3969705,47.7110642 L23.8040037,47.5741332 C21.125529,46.9586647 18.6524233,45.817093 16.4569997,44.1782459 L15.9826262,43.8251082 L10.7674104,48.4735533 L6.25507722,43.4445843 L11.4789706,38.7889323 L11.1824872,38.2815671 C9.91122408,36.1022031 9.08251674,33.7441081 8.71950533,31.2707029 L8.63417595,30.6883861 L1.52580496,30.292007 L1.90183273,23.5550047 L9.01164997,23.9513837 L9.16206108,23.3820393 C9.79696949,20.9677306 10.8831112,18.7162976 12.3915611,16.6882783 L12.7444487,16.2155062 L8.07302683,11.0106891 L13.1190302,6.5121473 L17.7832207,11.7097576 L18.2923044,11.4113923 C20.3054992,10.2352275 22.4922453,9.43237981 24.7917997,9.02591112 L25.3558413,8.92645601 L25.7709181,1.51921276 L32.529294,1.89541251 L32.1272336,9.0936559 L32.7202005,9.22914546 C35.3986751,9.84461401 37.8703345,10.9861856 40.0672044,12.6235914 L40.5415779,12.9767291 L45.7567938,8.32972538 L50.2691269,13.3586944 L45.0452335,18.0143464 L45.341717,18.5231529 C46.61298,20.7010756 47.4416874,23.0606119 47.8046988,25.5325758 L47.8900282,26.116334 L55.4033521,26.5328923 L55.0258781,33.2698947 L47.5140004,32.8518949 L47.3635893,33.4212394 Z M56.3897019,34.7891074 L56.9277108,25.1751139 L49.1410436,24.7427004 C48.7462145,22.4898261 47.9883739,20.3306414 46.8819845,18.3112703 L52.3112469,13.4725633 L45.8696021,6.29449918 L40.4548023,11.1216752 C38.3823108,9.66588309 36.0943265,8.6079114 33.6385759,7.9693808 L34.055099,0.537634118 L24.4070944,0 L23.9746624,7.71569821 C21.9050635,8.13802206 19.9265789,8.86303536 18.0768116,9.87632433 L13.2318385,4.4769211 L6.03090682,10.8968202 L10.8845575,16.3063131 C9.55833649,18.1959601 8.56475544,20.2556897 7.92261572,22.4480261 L0.538008954,22.0357919 L0,31.6497854 L7.38171425,32.0620196 C7.77798966,34.3134526 8.53583023,36.4726373 9.64221961,38.4920084 L4.21295721,43.3307154 L10.654602,50.5087795 L16.0694018,45.6801621 C18.1418933,47.1373956 20.4298776,48.1953673 22.8856282,48.8338979 L22.4691051,56.2656446 L32.1171098,56.8032787 L32.5495417,49.0890219 C34.6191407,48.6652566 36.5990715,47.9388019 38.4488388,46.9269544 L43.2923656,52.3263576 L50.4932973,45.9078999 L45.6396466,40.4955242 C46.9658676,38.60876 47.9608949,36.5490304 48.6030347,34.3552525 L56.3897019,34.7891074 Z"/>
      <path d="M33.9041335,29.1085116 C33.2428975,32.0938567 30.5500379,34.1186995 27.4875433,33.9684076 C27.1576099,33.9492795 26.8249383,33.9041919 26.4895288,33.8304122 C23.1436473,33.0926152 21.0202995,29.7725289 21.7568315,26.4305818 C22.3961632,23.5395107 24.9781322,21.5638544 27.8352741,21.5638544 C28.2774671,21.5638544 28.7251361,21.6116746 29.1741742,21.7086812 C30.7923542,22.0666494 32.176432,23.0339832 33.0717702,24.4330649 C33.9657393,25.8335128 34.2628164,27.493556 33.9041335,29.1085116 M34.2244838,23.6993668 C33.134745,21.9915034 31.4440071,20.8110282 29.4685132,20.3751815 C25.3765167,19.4761622 21.3214836,22.0625505 20.4193003,26.1368293 C19.5198551,30.215207 22.1114073,34.2635264 26.1938208,35.1639119 C26.5949432,35.2527208 27.0042798,35.310105 27.4122473,35.3319657 C27.5559943,35.3401634 27.6997412,35.3442623 27.8421191,35.3442623 C31.3919844,35.3442623 34.4640621,32.9040671 35.2416646,29.4036304 C35.6770126,27.4320729 35.3169607,25.4058638 34.2244838,23.6993668"/>
      <g transform="translate(50.602 30.295)">
        <path d="M26.3149393,21.5342325 C25.6537131,24.5198211 22.9554173,26.5489283 19.8984439,26.3945249 C19.5671463,26.3753952 19.2344797,26.330304 18.8990751,26.2565182 C15.553243,25.5186611 13.4299265,22.1983039 14.1664477,18.8560843 C14.8071389,15.9647773 17.3890699,13.9889599 20.2461695,13.9889599 C20.686987,13.9889599 21.1346494,14.0367839 21.5823119,14.1337985 C24.930882,14.873022 27.0528295,18.1933792 26.3149393,21.5342325 M21.8780156,12.80019 C17.7915554,11.9051966 13.7324752,14.4876966 12.8289363,18.5623078 C11.9295043,22.6410182 14.5210183,26.6896677 18.6033714,27.5901267 C19.004488,27.6789429 19.4138185,27.7363317 19.82178,27.7581942 C19.9655248,27.7663926 20.1092697,27.7704918 20.2516455,27.7704918 C23.8028273,27.7704918 26.8748597,25.3300976 27.6524507,21.8293753 C28.5532517,17.7506649 25.9631067,13.7020154 21.8780156,12.80019"/>
        <path d="M35.7052473,27.8260075 L33.557212,31.4977389 L29.5400884,28.982493 L29.1478631,29.423687 C28.0957931,30.6065562 26.8610621,31.5798215 25.4748217,32.3112363 L24.9763982,32.5750733 L26.1700659,37.5953048 L22.1458625,38.6198718 L20.9833463,33.7344902 L20.3886364,33.7784631 C18.5606116,33.9059843 16.7665702,33.6538734 15.0447435,33.0148016 L14.4995928,32.8110608 L12.0697782,36.9723564 L8.52275871,34.7487969 L10.9568212,30.583104 L10.5348604,30.1770882 C9.29729751,28.9912875 8.30753038,27.5988145 7.59387855,26.037779 L7.34749875,25.4969132 L2.7045139,26.6783166 L1.71474677,22.5126237 L6.35489967,21.3297546 L6.33366003,20.7317241 C6.26569319,19.0021261 6.51773689,17.2930487 7.08129529,15.6513963 L7.27528398,15.0885441 L3.2496646,12.5689009 L5.39628401,8.89570373 L9.41623948,11.4138812 L9.80704882,10.9712214 C10.854871,9.78981796 12.0896019,8.81801839 13.4772583,8.08220635 L13.9756818,7.81836936 L12.7834301,2.79960358 L16.8090495,1.77357085 L17.9715656,6.66188391 L18.5662755,6.61791108 C20.3858045,6.48306106 22.1869258,6.73810348 23.9087524,7.38010681 L24.4539031,7.58238184 L26.8851337,3.42401778 L30.4321532,5.64464575 L27.9980907,9.81033861 L28.4200515,10.2163544 C29.6561985,11.4006893 30.6459656,12.7931623 31.3610334,14.3571293 L31.6074132,14.8979952 L36.5151855,13.647701 L37.5049527,17.8148596 L32.5971803,19.0651538 L32.6198359,19.6646501 C32.6892187,21.3898508 32.437175,23.0989282 31.8750326,24.7420463 L31.6810439,25.3048985 L35.7052473,27.8260075 Z M34.0471396,20.2055159 L39.2168675,18.8877967 L37.5530958,11.8741302 L32.380536,13.1918493 C31.7036995,11.8521437 30.8371223,10.6326306 29.800628,9.55676195 L32.3762881,5.14921852 L26.4079498,1.41152788 L23.8365377,5.80734522 C22.2874601,5.30165767 20.6831594,5.06420438 19.063283,5.12430058 L17.8469598,0 L11.0715153,1.7266665 L12.3359817,7.0532421 C11.1692176,7.73188946 10.1072357,8.56590749 9.16702773,9.54503586 L4.91768417,6.88321382 L1.30552974,13.0643281 L5.56478514,15.7305474 C5.12583262,17.1816509 4.90635636,18.6767271 4.90635636,20.1893925 L0,21.4382209 L1.66801957,28.4518875 L6.57295995,27.2030591 C7.24979641,28.5412989 8.11637364,29.7593463 9.15428395,30.8366807 L6.57862385,35.2442241 L12.5483781,38.9848463 L15.1183743,34.5860974 C16.6674519,35.091785 18.2561768,35.3160464 19.8902129,35.2706078 L21.1079522,40.3934426 L27.8848126,38.6682419 L26.6160983,33.3416663 C27.7814464,32.6644847 28.8448443,31.8304667 29.7878842,30.8498725 L34.0358118,33.5102288 L37.6493822,27.3305803 L33.3915428,24.6628952 C33.8290793,23.2117918 34.0485556,21.7167155 34.0471396,20.2055159 Z"/>
      </g>
    </g>
    <g transform="translate(140.446 27.197)">
      <path fill="#FBB817" d="M15.0259625 29.3381684L6.47835428 40.4614886C6.22066904 40.7960584 6.29608911 41.2656563 6.6464782 41.5102073 6.78631958 41.609228 6.94972974 41.6557377 7.10999739 41.6557377 7.35197013 41.6557377 7.59080036 41.5492155 7.74478301 41.3496739L16.2939625 30.2263537C16.5500765 29.8917839 16.4746564 29.4221859 16.1242674 29.1776349 15.778592 28.9345842 15.2867903 29.0035986 15.0259625 29.3381684M81.9077885 7.71818991C81.5621669 7.47513086 81.0688705 7.54564799 80.8096542 7.87872891L72.2602308 19.0024312C72.0041565 19.3370125 72.0795649 19.8066265 72.4298996 20.0526863 72.5697193 20.15021 72.7315331 20.1967213 72.8949179 20.1967213 73.135282 20.1967213 73.3725042 20.0916958 73.5280339 19.890647L82.0758863 8.76694468C82.3335316 8.43386377 82.2581232 7.96424968 81.9077885 7.71818991M49.1938539 15.4529991L36.8373631 31.6276508C36.5832811 31.9600989 36.6581028 32.4288209 37.0057119 32.6744132 37.1444438 32.7717517 37.3049986 32.8196721 37.4671123 32.8196721 37.7056065 32.8196721 37.940983 32.7133486 38.0953028 32.5141792L50.4517936 16.3395275C50.7058756 16.0055818 50.6310539 15.5368599 50.2834448 15.292765 49.940512 15.0486702 49.4510534 15.1190534 49.1938539 15.4529991M32.5217681 32.630175L22.6103702 26.6116104C22.259811 26.3986602 21.8090921 26.5245651 21.6043537 26.8976166 21.4010883 27.2691137 21.5233422 27.7447544 21.8753743 27.9592591L31.7882451 33.9778237C31.9031342 34.0477708 32.0298069 34.0819672 32.1550066 34.0819672 32.4098248 34.0819672 32.6572783 33.9420729 32.7942615 33.6918175 32.996054 33.3203204 32.8738002 32.8446797 32.5217681 32.630175M65.4132865 20.0071595L55.5006062 13.9883264C55.1514748 13.7753667 54.6992244 13.9028316 54.4959327 14.2743453 54.292641 14.6474135 54.4149107 15.1230754 54.7669883 15.3375896L64.6796686 21.3548682C64.7945726 21.4248185 64.9212616 21.4590164 65.0464775 21.4590164 65.3013287 21.4590164 65.5488143 21.3191158 65.6858152 21.0688493 65.8876338 20.6973356 65.7653641 20.2216736 65.4132865 20.0071595"/>
      <path fill="#53627D" d="M22.0081019 26.9858048C21.5400943 27.7952235 20.7866021 28.3727126 19.8833475 28.6155382 18.9832129 28.861477 18.0393976 28.736951 17.2297445 28.2715353 16.4185313 27.8061195 15.8397619 27.0542941 15.596398 26.1545941 15.0940699 24.2960443 16.2001278 22.3752315 18.064358 21.8740145 18.3685629 21.7915161 18.6727679 21.7526017 18.9738527 21.7526017 20.5167177 21.7526017 21.9332207 22.7799408 22.3544275 24.3365152 22.5962315 25.2362152 22.4745495 26.1779427 22.0081019 26.9858048M17.6587514 20.3703637C14.9645878 21.0957273 13.3640018 23.872656 14.0909736 26.5593034 14.4404193 27.8605996 15.2797129 28.9486451 16.4497318 29.6210853 17.2297445 30.0662655 18.0893184 30.295082 18.9644926 30.295082 19.4059797 30.295082 19.8505869 30.2359321 20.2889541 30.1191891 21.5946952 29.7674033 22.6851529 28.9315228 23.3590838 27.7625354 24.0345748 26.5951046 24.2108576 25.2331021 23.8598519 23.9318059 23.1344402 21.2451585 20.3513551 19.6481132 17.6587514 20.3703637M36.3312925 38.7154565C34.4668417 39.2166732 32.543103 38.1115061 32.0422757 36.2514009 31.5414483 34.3944089 32.6476371 32.4735974 34.5105276 31.9723808 34.8147685 31.8898824 35.1205696 31.8509681 35.4201299 31.8509681 36.9631774 31.8509681 38.379848 32.8783065 38.8011046 34.4348798 39.301932 36.2934284 38.194183 38.2142399 36.3312925 38.7154565M34.104873 30.4687309C31.4119509 31.1940941 29.8096154 33.971021 30.5366732 36.6576666 31.145155 38.9069151 33.1921503 40.3934426 35.4232503 40.3934426 35.8569887 40.3934426 36.2985281 40.337406 36.736947 40.2191064 39.4314294 39.4937432 41.0337649 36.7168164 40.3067071 34.0286142 39.5796493 31.3435251 36.7977952 29.7464809 34.104873 30.4687309M52.7775007 14.7306409C51.875653 14.9734161 50.9316775 14.8504722 50.1218869 14.3851531 49.310536 13.9198339 48.7316684 13.1681645 48.4882632 12.267095 47.98741 10.4104871 49.0936557 8.49007295 50.9550818 7.98740376 51.2577781 7.90647869 51.5651552 7.86757241 51.8647309 7.86757241 53.4062976 7.86757241 54.8246013 8.8946983 55.2474399 10.4509496 55.7467327 12.3091138 54.6389268 14.2295279 52.7775007 14.7306409zM56.7531198 10.044768C56.0244644 7.36023447 53.2409068 5.76196433 50.5478461 6.48562121 47.8563457 7.21083434 46.255488 9.98718674 46.9825832 12.6732766 47.3336485 13.9743027 48.1715243 15.0621224 49.3433021 15.734423 50.1218869 16.1810671 50.9862876 16.4098361 51.8600501 16.4098361 52.3000519 16.4098361 52.7447346 16.3506985 53.1831761 16.2339797 55.8762368 15.5087665 57.4786547 12.7324141 56.7531198 10.0463243L56.7531198 10.044768zM71.7533559 26.0912966C70.8483771 26.3340718 69.9059509 26.211128 69.0977112 25.7458088 68.2863509 25.2804896 67.7074766 24.5303765 67.4640685 23.6277507 66.9632095 21.7711428 68.0694681 19.8507287 69.9324762 19.3496157 70.235176 19.2671344 70.5425567 19.2282281 70.8421359 19.2282281 72.3837205 19.2282281 73.8004804 20.255354 74.2233239 21.8116054 74.7226226 23.6697695 73.6148037 25.5901837 71.7533559 26.0912966zM75.7290214 21.4054238C75.0003575 18.7208902 72.2152072 17.1226201 69.526796 17.8462769 66.8337039 18.5714901 65.2312673 21.3478425 65.958371 24.0339323 66.3094403 25.3349584 67.1473259 26.4227781 68.3191174 27.0950787 69.0977112 27.5417229 69.9605617 27.7704918 70.8343344 27.7704918 71.2759016 27.7704918 71.7205895 27.7129105 72.1590361 27.5946354 74.8521282 26.8694223 76.4545648 24.0930699 75.7290214 21.40698L75.7290214 21.4054238zM86.5251624 6.79145769C86.0602959 7.59912011 85.3068378 8.17802265 84.405184 8.41923204 82.544158 8.92499367 80.617614 7.81854285 80.1137487 5.95889624 79.6114432 4.10080582 80.720571 2.182024 82.5831569 1.67937475 82.8857881 1.59845289 83.1930992 1.55799196 83.4988503 1.55799196 84.1025528 1.55799196 84.7000154 1.71516711 85.2381998 2.02484885 86.0478162 2.49014955 86.6265594 3.24178914 86.8714723 4.14126675L86.8714723 4.14282294C87.1148252 5.04230054 86.9915888 5.98223908 86.5251624 6.79145769M88.3768286 3.73665744C88.0258388 2.43568291 87.1881431 1.34790636 86.0166171.675632437 84.8450912.00180232686 83.4785709-.175603291 82.1775687.177651755 79.483527.901279934 77.8830135 3.67752224 78.6083924 6.36506173 79.2167747 8.61219956 81.2649952 10.0983607 83.4941704 10.0983607 83.9293978 10.0983607 84.370865 10.0407816 84.8092122 9.92251123 86.1148943 9.57236856 87.2053026 8.73513854 87.8776431 7.56799631 88.5531034 6.3992979 88.7293783 5.03918816 88.3768286 3.73665744"/>
      <g transform="translate(0 37.869)">
        <mask id="group-service-icon-b" fill="#fff">
          <use xlink:href="#group-service-icon-a"/>
        </mask>
        <path fill="#53627D" d="M5.53474699,8.54234754 C4.69763855,8.7659541 3.82438554,8.65487213 3.07257831,8.22208525 C2.32221687,7.79074098 1.78438554,7.0939541 1.55884337,6.26011803 C1.33474699,5.42483934 1.44751807,4.55349508 1.87980723,3.80333115 C2.31209639,3.05460984 3.01040964,2.51939672 3.84751807,2.29434754 C4.128,2.21788852 4.41426506,2.18038033 4.69763855,2.18038033 C5.25715663,2.18038033 5.80944578,2.32608525 6.30824096,2.61316721 C7.05860241,3.04306885 7.59643373,3.73985574 7.8219759,4.57513443 C8.28607229,6.29762623 7.25956627,8.07782295 5.53474699,8.54234754 Z M9.21860241,4.20005246 C8.89185542,2.99257705 8.1140241,1.98562623 7.02824096,1.36241311 C5.94390361,0.7392 4.67884337,0.576183607 3.47161446,0.90077377 C2.26149398,1.22680656 1.25233735,2.00149508 0.626313253,3.08490492 C0.00173493976,4.16687213 -0.161638554,5.42772459 0.163662651,6.6352 C0.488963855,7.84123279 1.26679518,8.84962623 2.35257831,9.47283934 C3.07257831,9.88687213 3.87354217,10.0989377 4.68318072,10.0989377 C5.09233735,10.0989377 5.50438554,10.0455607 5.9106506,9.93592131 C8.40607229,9.26365902 9.88944578,6.69001967 9.21860241,4.20005246 Z" mask="url(#group-service-icon-b)"/>
      </g>
    </g>
    <g fill="#FFF" transform="translate(58.602)">
      <path d="M7.45316367 14.51696C7.45316367 7.9483309 12.8362952 2.60526324 19.4522633 2.60526324 26.0701458 2.60526324 31.4532773 7.9483309 31.4532773 14.51696 31.4532773 21.0817888 26.0758888 26.4229564 19.461835 26.4286567L19.4541776 26.4286567 19.4426916 26.4286567C12.8305521 26.4229564 7.45316367 21.0817888 7.45316367 14.51696M33.9055502 31.8401278C31.5604805 29.5923152 28.4937036 27.9867347 25.0919167 27.133592 29.96009 24.978884 33.3676199 20.1393416 33.3676199 14.51696 33.3676199 6.90137845 27.1249486.705168051 19.4522633.705168051 11.779578.705168051 5.53882103 6.90137845 5.53882103 14.51696 5.53882103 20.1355414 8.93869355 24.9693836 13.7972952 27.1259916 6.17438279 29.0545882.630446518 34.7757748.630446518 41.5154124.630446518 42.0398387 1.05734493 42.46546 1.58761784 42.46546 2.1159764 42.46546 2.54478915 42.0398387 2.54478915 41.5154124 2.54478915 34.2456483 10.125586 28.332552 19.4426916 28.3287519 19.4465203 28.3287519 19.4484346 28.3287519 19.4522633 28.3287519 19.456092 28.3287519 19.4580063 28.3287519 19.461835 28.3287519 24.5635581 28.3306519 29.3436717 30.109141 32.5750821 33.2062962 32.9579506 33.5711145 33.5647972 33.561614 33.9285223 33.1834951 34.2960761 32.8053761 34.2865044 32.204946 33.9055502 31.8401278M78.3286368 14.51696C78.3286368 7.9483309 83.7117683 2.60526324 90.3277364 2.60526324 96.9437046 2.60526324 102.326836 7.9483309 102.326836 14.51696 102.326836 21.0817888 96.9494476 26.4229564 90.3353938 26.4286567L90.3277364 26.4286567 90.3181647 26.4286567C83.7060252 26.4229564 78.3286368 21.0817888 78.3286368 14.51696M95.9807902 27.1259916C100.841306 24.9693836 104.241179 20.1336413 104.241179 14.51696 104.241179 6.90137845 97.9985074.705168051 90.3277364.705168051 82.6550511.705168051 76.4142941 6.90137845 76.4142941 14.51696 76.4142941 20.1393416 79.8199097 24.978884 84.688083 27.133592 81.2862962 27.9867347 78.2176049 29.5923152 75.8763639 31.8401278 75.497324 32.204946 75.485838 32.8053761 75.8533918 33.1834951 76.2190312 33.561614 76.8239635 33.5711145 77.206832 33.2062962 80.4382424 30.109141 85.2164416 28.3306519 90.3181647 28.3287519 90.320079 28.3287519 90.3239077 28.3287519 90.3277364 28.3287519 90.3315651 28.3287519 90.3334794 28.3287519 90.3373081 28.3287519 99.6563281 28.332552 107.237125 34.2456483 107.237125 41.5154124 107.237125 42.0398387 107.664023 42.46546 108.194296 42.46546 108.722655 42.46546 109.151468 42.0398387 109.151468 41.5154124 109.151468 34.7738747 103.605617 29.0545882 95.9807902 27.1259916"/>
      <path d="M34.452095,33.4455182 C34.452095,22.2843591 43.5988241,13.2057043 54.8417584,13.2057043 C66.0846927,13.2057043 75.2333362,22.2843591 75.2333362,33.4455182 C75.2333362,44.5990769 66.0961788,53.6739315 54.8628162,53.683432 L54.8417584,53.683432 L54.822615,53.683432 C43.5873381,53.6739315 34.452095,44.5990769 34.452095,33.4455182 M61.8884537,54.4358697 C70.7422884,51.4983225 77.1476788,43.2082072 77.1476788,33.4455182 C77.1476788,21.2374066 67.1414099,11.3056091 54.8417584,11.3056091 C42.5440213,11.3056091 32.5377524,21.2374066 32.5377524,33.4455182 C32.5377524,43.2082072 38.9431428,51.4983225 47.7969775,54.4358697 C35.9108241,56.9325948 27.1067623,65.560927 27.1067623,75.8233411 C27.1067623,76.3477674 27.5355751,76.7733887 28.0639336,76.7733887 C28.5922922,76.7733887 29.021105,76.3477674 29.021105,75.8233411 C29.021105,64.6697824 40.5933062,55.5930277 54.822615,55.5835272 C54.8302724,55.5835272 54.8341011,55.5854273 54.8417584,55.5854273 C54.8494158,55.5854273 54.8551588,55.5835272 54.8628162,55.5835272 C69.0902107,55.5930277 80.6624119,64.6697824 80.6624119,75.8233411 C80.6624119,76.3477674 81.0893103,76.7733887 81.6195832,76.7733887 C82.1479418,76.7733887 82.5767545,76.3477674 82.5767545,75.8233411 C82.5767545,65.560927 73.7726927,56.9344949 61.8884537,54.4358697"/>
    </g>
  </g>
</svg>
