<svg xmlns="http://www.w3.org/2000/svg" width="87" height="87" viewBox="0 0 87 87">
  <g fill="none" fill-rule="evenodd">
    <path fill="#F7971D" d="M86.639,43.3188 C86.639,67.2438 67.244,86.6388 43.32,86.6388 C19.395,86.6388 0,67.2438 0,43.3188 C0,19.3938 19.395,-0.0002 43.32,-0.0002 C67.244,-0.0002 86.639,19.3938 86.639,43.3188"/>
    <path fill="#FEFEFE" d="M22.1449,49.9546 C21.7999,49.9546 21.5199,49.6746 21.5199,49.3296 L21.5199,21.2166 L62.3519,21.2166 L62.3519,34.4156 C62.3519,34.7606 62.0719,35.0406 61.7269,35.0406 C61.3819,35.0406 61.1019,34.7606 61.1019,34.4156 L61.1019,22.4666 L22.7699,22.4666 L22.7699,49.3296 C22.7699,49.6746 22.4899,49.9546 22.1449,49.9546"/>
    <path fill="#FEFEFE" d="M61.5453 27.1796L22.3163 27.1796C21.9713 27.1796 21.6913 26.8996 21.6913 26.5546 21.6913 26.2096 21.9713 25.9296 22.3163 25.9296L61.5453 25.9296C61.8903 25.9296 62.1703 26.2096 62.1703 26.5546 62.1703 26.8996 61.8903 27.1796 61.5453 27.1796M25.222 24.103C25.222 24.454 24.937 24.738 24.586 24.738 24.235 24.738 23.951 24.454 23.951 24.103 23.951 23.752 24.235 23.467 24.586 23.467 24.937 23.467 25.222 23.752 25.222 24.103M27.6048 24.103C27.6048 24.454 27.3208 24.738 26.9688 24.738 26.6188 24.738 26.3338 24.454 26.3338 24.103 26.3338 23.752 26.6188 23.467 26.9688 23.467 27.3208 23.467 27.6048 23.752 27.6048 24.103M29.9886 24.103C29.9886 24.454 29.7036 24.738 29.3526 24.738 29.0016 24.738 28.7176 24.454 28.7176 24.103 28.7176 23.752 29.0016 23.467 29.3526 23.467 29.7036 23.467 29.9886 23.752 29.9886 24.103M42.9408 31.2949L29.9888 31.2949C29.6438 31.2949 29.3638 31.0149 29.3638 30.6699 29.3638 30.3249 29.6438 30.0449 29.9888 30.0449L42.9408 30.0449C43.2858 30.0449 43.5658 30.3249 43.5658 30.6699 43.5658 31.0149 43.2858 31.2949 42.9408 31.2949M42.9408 35.0556L24.5858 35.0556C24.2408 35.0556 23.9608 34.7756 23.9608 34.4306 23.9608 34.0856 24.2408 33.8056 24.5858 33.8056L42.9408 33.8056C43.2858 33.8056 43.5658 34.0856 43.5658 34.4306 43.5658 34.7756 43.2858 35.0556 42.9408 35.0556M37.2738 38.8159L24.5858 38.8159C24.2408 38.8159 23.9608 38.5359 23.9608 38.1909 23.9608 37.8459 24.2408 37.5659 24.5858 37.5659L37.2738 37.5659C37.6188 37.5659 37.8988 37.8459 37.8988 38.1909 37.8988 38.5359 37.6188 38.8159 37.2738 38.8159M25.8744 30.0063C25.5084 30.0063 25.2104 30.3043 25.2104 30.6703 25.2104 31.0353 25.5084 31.3333 25.8744 31.3333 26.2394 31.3333 26.5374 31.0353 26.5374 30.6703 26.5374 30.3043 26.2394 30.0063 25.8744 30.0063M25.8744 32.5833C24.8184 32.5833 23.9604 31.7253 23.9604 30.6703 23.9604 29.6143 24.8184 28.7563 25.8744 28.7563 26.9294 28.7563 27.7874 29.6143 27.7874 30.6703 27.7874 31.7253 26.9294 32.5833 25.8744 32.5833M29.3402 44.6284C29.2742 44.6284 29.2072 44.6334 29.1412 44.6424 28.3662 44.7504 27.8252 45.4684 27.9332 46.2424 28.0412 47.0164 28.7612 47.5614 29.5322 47.4494 29.9082 47.3974 30.2402 47.2024 30.4682 46.9004 30.6962 46.5984 30.7932 46.2254 30.7402 45.8504 30.6882 45.4754 30.4922 45.1434 30.1912 44.9154 29.9422 44.7274 29.6462 44.6284 29.3402 44.6284M29.3312 48.7134C28.7552 48.7134 28.1972 48.5284 27.7302 48.1754 27.1612 47.7454 26.7932 47.1204 26.6942 46.4154 26.4922 44.9584 27.5122 43.6074 28.9682 43.4044 29.6772 43.3064 30.3762 43.4884 30.9442 43.9174 31.5122 44.3464 31.8802 44.9714 31.9792 45.6774 32.0772 46.3824 31.8952 47.0844 31.4662 47.6534 31.0362 48.2224 30.4112 48.5894 29.7052 48.6884 29.5802 48.7054 29.4552 48.7134 29.3312 48.7134M21.721 52.9453C21.655 52.9453 21.588 52.9503 21.522 52.9593 20.747 53.0673 20.206 53.7853 20.314 54.5593 20.422 55.3333 21.142 55.8783 21.913 55.7663 22.289 55.7143 22.621 55.5193 22.849 55.2173 23.077 54.9153 23.174 54.5423 23.121 54.1673 23.069 53.7923 22.873 53.4603 22.572 53.2323 22.323 53.0443 22.027 52.9453 21.721 52.9453M21.712 57.0303C21.136 57.0303 20.578 56.8453 20.111 56.4923 19.542 56.0633 19.174 55.4373 19.075 54.7323 18.873 53.2753 19.893 51.9243 21.349 51.7213 22.057 51.6233 22.756 51.8053 23.325 52.2343 23.893 52.6633 24.261 53.2883 24.36 53.9943 24.458 54.6993 24.276 55.4013 23.847 55.9703 23.417 56.5393 22.792 56.9063 22.086 57.0053 21.961 57.0223 21.836 57.0303 21.712 57.0303M37.2757 50.6132C37.2107 50.6132 37.1447 50.6182 37.0787 50.6272 36.7037 50.6792 36.3707 50.8752 36.1427 51.1772 35.9147 51.4792 35.8177 51.8522 35.8707 52.2272 35.9227 52.6022 36.1187 52.9342 36.4207 53.1622 36.7237 53.3912 37.0977 53.4882 37.4697 53.4352 38.2437 53.3272 38.7857 52.6092 38.6777 51.8352 38.5797 51.1272 37.9707 50.6132 37.2757 50.6132M37.2687 54.6992C36.6927 54.6992 36.1347 54.5132 35.6677 54.1602 35.0987 53.7312 34.7307 53.1062 34.6317 52.4002 34.5337 51.6952 34.7157 50.9932 35.1447 50.4242 35.5747 49.8552 36.1997 49.4882 36.9047 49.3892 37.6187 49.2912 38.3127 49.4732 38.8807 49.9022 39.4497 50.3312 39.8177 50.9562 39.9167 51.6622 40.1187 53.1192 39.0987 54.4692 37.6437 54.6732 37.5177 54.6912 37.3927 54.6992 37.2687 54.6992M46.7455 39.8354C46.6805 39.8354 46.6145 39.8404 46.5485 39.8494 46.1735 39.9014 45.8405 40.0974 45.6125 40.3994 45.3845 40.7014 45.2875 41.0744 45.3405 41.4494 45.3925 41.8244 45.5885 42.1564 45.8905 42.3844 46.1925 42.6144 46.5695 42.7114 46.9395 42.6574 47.7135 42.5494 48.2555 41.8314 48.1475 41.0574 48.0495 40.3494 47.4405 39.8354 46.7455 39.8354M46.7385 43.9214C46.1625 43.9214 45.6045 43.7354 45.1375 43.3824 44.5685 42.9534 44.2005 42.3284 44.1015 41.6224 44.0035 40.9174 44.1855 40.2154 44.6145 39.6464 45.0445 39.0774 45.6695 38.7104 46.3745 38.6114 47.0885 38.5124 47.7825 38.6954 48.3505 39.1244 48.9195 39.5534 49.2875 40.1784 49.3865 40.8844 49.5885 42.3414 48.5685 43.6914 47.1135 43.8954 46.9875 43.9134 46.8625 43.9214 46.7385 43.9214M55.056 46.3628C54.991 46.3628 54.925 46.3668 54.859 46.3768 54.485 46.4288 54.152 46.6238 53.924 46.9258 53.696 47.2288 53.599 47.6018 53.652 47.9768 53.76 48.7518 54.479 49.2928 55.251 49.1838 55.626 49.1318 55.959 48.9368 56.187 48.6338 56.415 48.3318 56.512 47.9588 56.459 47.5838 56.361 46.8768 55.751 46.3628 55.056 46.3628M55.05 50.4478C54.474 50.4478 53.916 50.2628 53.449 49.9098 52.88 49.4798 52.512 48.8548 52.413 48.1498 52.315 47.4438 52.497 46.7418 52.926 46.1738 53.356 45.6048 53.981 45.2368 54.686 45.1378 56.144 44.9428 57.494 45.9538 57.698 47.4108 57.796 48.1168 57.614 48.8188 57.185 49.3868 56.755 49.9558 56.13 50.3238 55.425 50.4228 55.299 50.4398 55.174 50.4478 55.05 50.4478M62.9564 38.2231C62.8914 38.2231 62.8254 38.2281 62.7594 38.2371 62.3844 38.2891 62.0514 38.4851 61.8234 38.7871 61.5954 39.0891 61.4984 39.4621 61.5514 39.8371 61.6034 40.2121 61.7994 40.5441 62.1014 40.7721 62.4044 41.0011 62.7794 41.0981 63.1504 41.0451 63.9244 40.9371 64.4664 40.2191 64.3584 39.4451 64.2604 38.7371 63.6514 38.2231 62.9564 38.2231M62.9494 42.3091C62.3734 42.3091 61.8154 42.1231 61.3484 41.7701 60.7794 41.3411 60.4114 40.7161 60.3124 40.0101 60.2144 39.3051 60.3964 38.6031 60.8254 38.0341 61.2554 37.4651 61.8804 37.0981 62.5854 36.9991 63.2974 36.9001 63.9934 37.0831 64.5614 37.5121 65.1304 37.9411 65.4984 38.5661 65.5974 39.2721 65.7994 40.7291 64.7794 42.0791 63.3244 42.2831 63.1984 42.3011 63.0734 42.3091 62.9494 42.3091"/>
    <path fill="#FEFEFE" d="M23.1839 53.3017C23.0299 53.3017 22.8749 53.2447 22.7539 53.1307 22.5029 52.8937 22.4929 52.4977 22.7299 52.2467L27.4359 47.2717C27.6739 47.0217 28.0699 47.0107 28.3199 47.2477 28.5709 47.4847 28.5809 47.8807 28.3439 48.1317L23.6379 53.1067C23.5149 53.2367 23.3499 53.3017 23.1839 53.3017M56.766 46.8803C56.612 46.8803 56.457 46.8233 56.336 46.7093 56.085 46.4723 56.075 46.0763 56.312 45.8253L61.018 40.8503C61.256 40.6003 61.651 40.5893 61.902 40.8263 62.153 41.0633 62.163 41.4593 61.926 41.7103L57.22 46.6853C57.097 46.8153 56.932 46.8803 56.766 46.8803M38.6371 50.8559C38.4831 50.8559 38.3281 50.7989 38.2071 50.6849 37.9561 50.4479 37.9461 50.0519 38.1831 49.8009L45.0381 42.5539C45.2761 42.3039 45.6711 42.2929 45.9221 42.5289 46.1731 42.7669 46.1841 43.1619 45.9471 43.4129L39.0911 50.6609C38.9681 50.7909 38.8031 50.8559 38.6371 50.8559M35.68 51.3798C35.548 51.3798 35.416 51.3388 35.303 51.2538L30.689 47.7708C30.413 47.5628 30.359 47.1708 30.567 46.8958 30.775 46.6188 31.166 46.5658 31.443 46.7728L36.057 50.2558C36.332 50.4638 36.387 50.8558 36.179 51.1308 36.056 51.2948 35.868 51.3798 35.68 51.3798M53.1165 46.9419C52.9845 46.9419 52.8525 46.9009 52.7395 46.8159L48.1255 43.3339C47.8495 43.1259 47.7955 42.7339 48.0035 42.4579 48.2115 42.1819 48.6025 42.1279 48.8795 42.3359L53.4935 45.8179C53.7685 46.0259 53.8235 46.4179 53.6155 46.6929 53.4925 46.8559 53.3045 46.9419 53.1165 46.9419M62.3519 63.5752L21.5199 63.5752 21.5199 59.3002C21.5199 58.9552 21.7999 58.6752 22.1449 58.6752 22.4899 58.6752 22.7699 58.9552 22.7699 59.3002L22.7699 62.3252 61.1019 62.3252 61.1019 46.0462C61.1019 45.7002 61.3819 45.4212 61.7269 45.4212 62.0719 45.4212 62.3519 45.7002 62.3519 46.0462L62.3519 63.5752z"/>
    <path fill="#FEFEFE" d="M25.5365 61.6367C25.1915 61.6367 24.9115 61.3567 24.9115 61.0117L24.9115 56.4057C24.9115 56.0607 25.1915 55.7807 25.5365 55.7807 25.8815 55.7807 26.1615 56.0607 26.1615 56.4057L26.1615 61.0117C26.1615 61.3567 25.8815 61.6367 25.5365 61.6367M29.638 61.6367C29.293 61.6367 29.013 61.3567 29.013 61.0117L29.013 50.9637C29.013 50.6187 29.293 50.3387 29.638 50.3387 29.983 50.3387 30.263 50.6187 30.263 50.9637L30.263 61.0117C30.263 61.3567 29.983 61.6367 29.638 61.6367M33.7386 61.6367C33.3936 61.6367 33.1136 61.3567 33.1136 61.0117L33.1136 55.3747C33.1136 55.0297 33.3936 54.7497 33.7386 54.7497 34.0836 54.7497 34.3636 55.0297 34.3636 55.3747L34.3636 61.0117C34.3636 61.3567 34.0836 61.6367 33.7386 61.6367M37.8402 61.6367C37.4952 61.6367 37.2152 61.3567 37.2152 61.0117L37.2152 56.6657C37.2152 56.3207 37.4952 56.0407 37.8402 56.0407 38.1852 56.0407 38.4652 56.3207 38.4652 56.6657L38.4652 61.0117C38.4652 61.3567 38.1852 61.6367 37.8402 61.6367M41.9408 61.6367C41.5958 61.6367 41.3158 61.3567 41.3158 61.0117L41.3158 50.9637C41.3158 50.6187 41.5958 50.3387 41.9408 50.3387 42.2858 50.3387 42.5658 50.6187 42.5658 50.9637L42.5658 61.0117C42.5658 61.3567 42.2858 61.6367 41.9408 61.6367M46.0423 61.6367C45.6973 61.6367 45.4173 61.3567 45.4173 61.0117L45.4173 47.7807C45.4173 47.4347 45.6973 47.1557 46.0423 47.1557 46.3873 47.1557 46.6673 47.4347 46.6673 47.7807L46.6673 61.0117C46.6673 61.3567 46.3873 61.6367 46.0423 61.6367M50.1429 61.6367C49.7979 61.6367 49.5179 61.3567 49.5179 61.0117L49.5179 48.2067C49.5179 47.8617 49.7979 47.5817 50.1429 47.5817 50.4879 47.5817 50.7679 47.8617 50.7679 48.2067L50.7679 61.0117C50.7679 61.3567 50.4879 61.6367 50.1429 61.6367M54.2445 61.6367C53.8995 61.6367 53.6195 61.3567 53.6195 61.0117L53.6195 52.3207C53.6195 51.9747 53.8995 51.6957 54.2445 51.6957 54.5895 51.6957 54.8695 51.9747 54.8695 52.3207L54.8695 61.0117C54.8695 61.3567 54.5895 61.6367 54.2445 61.6367M58.3451 61.6367C58.0001 61.6367 57.7201 61.3567 57.7201 61.0117L57.7201 50.9637C57.7201 50.6187 58.0001 50.3387 58.3451 50.3387 58.6901 50.3387 58.9701 50.6187 58.9701 50.9637L58.9701 61.0117C58.9701 61.3567 58.6901 61.6367 58.3451 61.6367"/>
  </g>
</svg>
