<svg xmlns="http://www.w3.org/2000/svg" xmlns:xlink="http://www.w3.org/1999/xlink" width="87" height="87" viewBox="0 0 87 87">
  <defs>
    <polygon id="lightbulb-icon-a" points="0 .361 86.64 .361 86.64 87 0 87"/>
  </defs>
  <g fill="none" fill-rule="evenodd" transform="translate(0 -1)">
    <g transform="translate(0 .639)">
      <mask id="lightbulb-icon-b" fill="#fff">
        <use xlink:href="#lightbulb-icon-a"/>
      </mask>
      <path fill="#F7971D" d="M86.6401,43.68 C86.6401,67.605 67.2441,87 43.3211,87 C19.3961,87 0.0001,67.605 0.0001,43.68 C0.0001,19.755 19.3961,0.361 43.3211,0.361 C67.2441,0.361 86.6401,19.755 86.6401,43.68" mask="url(#lightbulb-icon-b)"/>
    </g>
    <path fill="#FEFEFE" d="M42.4526 30.3181C37.6206 30.3181 33.3886 33.4121 31.9216 38.0161 30.4546 42.6211 32.1176 47.5931 36.0586 50.3881 37.6546 51.5201 38.6056 53.3801 38.6056 55.3661L38.6056 55.9991C38.6056 56.0901 38.6706 56.1141 38.6976 56.1201L46.1766 56.1231 46.3546 56.9821 46.2066 56.1201C46.2356 56.1141 46.3006 56.0901 46.3006 55.9991L46.3006 55.3661C46.3006 53.3801 47.2516 51.5191 48.8466 50.3881 52.7886 47.5931 54.4516 42.6211 52.9846 38.0161 51.5166 33.4121 47.2856 30.3181 42.4526 30.3181M46.1766 57.8731L38.7296 57.8731C38.6206 57.8731 38.5136 57.8631 38.4076 57.8451 37.4676 57.6511 36.8556 56.8971 36.8556 55.9991L36.8556 55.3661C36.8556 53.9461 36.1806 52.6191 35.0476 51.8161 30.4806 48.5791 28.5546 42.8191 30.2536 37.4851 31.9526 32.1511 36.8546 28.5681 42.4526 28.5681 48.0506 28.5681 52.9536 32.1511 54.6526 37.4851 56.3516 42.8191 54.4256 48.5791 49.8576 51.8161 48.7246 52.6191 48.0506 53.9461 48.0506 55.3661L48.0506 55.9991C48.0506 56.8971 47.4386 57.6511 46.5636 57.8331L46.4986 57.8451C46.3916 57.8631 46.2856 57.8731 46.1766 57.8731M46.35 60.6989L38.556 60.6989C38.073 60.6989 37.681 60.3069 37.681 59.8239 37.681 59.3409 38.073 58.9489 38.556 58.9489L46.35 58.9489C46.833 58.9489 47.225 59.3409 47.225 59.8239 47.225 60.3069 46.833 60.6989 46.35 60.6989M46.35 63.7351L38.556 63.7351C38.073 63.7351 37.681 63.3431 37.681 62.8601 37.681 62.3771 38.073 61.9851 38.556 61.9851L46.35 61.9851C46.833 61.9851 47.225 62.3771 47.225 62.8601 47.225 63.3431 46.833 63.7351 46.35 63.7351M43.9897 66.5368L40.9167 66.5368C40.4327 66.5368 40.0417 66.1448 40.0417 65.6618 40.0417 65.1788 40.4327 64.7868 40.9167 64.7868L43.9897 64.7868C44.4727 64.7868 44.8647 65.1788 44.8647 65.6618 44.8647 66.1448 44.4727 66.5368 43.9897 66.5368M26.6137 41.2145L23.2417 41.2145C22.7587 41.2145 22.3667 40.8225 22.3667 40.3395 22.3667 39.8565 22.7587 39.4645 23.2417 39.4645L26.6137 39.4645C27.0967 39.4645 27.4887 39.8565 27.4887 40.3395 27.4887 40.8225 27.0967 41.2145 26.6137 41.2145M61.6645 41.2145L58.2925 41.2145C57.8095 41.2145 57.4175 40.8225 57.4175 40.3395 57.4175 39.8565 57.8095 39.4645 58.2925 39.4645L61.6645 39.4645C62.1475 39.4645 62.5395 39.8565 62.5395 40.3395 62.5395 40.8225 62.1475 41.2145 61.6645 41.2145M42.4526 26.1501C41.9696 26.1501 41.5776 25.7581 41.5776 25.2751L41.5776 21.9021C41.5776 21.4191 41.9696 21.0271 42.4526 21.0271 42.9356 21.0271 43.3276 21.4191 43.3276 21.9021L43.3276 25.2751C43.3276 25.7581 42.9356 26.1501 42.4526 26.1501M54.7563 30.3181C54.5323 30.3181 54.3083 30.2331 54.1373 30.0621 53.7963 29.7201 53.7963 29.1661 54.1373 28.8241L56.5223 26.4391C56.8633 26.0971 57.4183 26.0971 57.7603 26.4391 58.1013 26.7811 58.1013 27.3361 57.7603 27.6771L55.3753 30.0621C55.2043 30.2331 54.9803 30.3181 54.7563 30.3181M30.1498 30.3181C29.9258 30.3181 29.7018 30.2331 29.5308 30.0621L27.1458 27.6771C26.8048 27.3361 26.8048 26.7811 27.1458 26.4391 27.4878 26.0971 28.0428 26.0971 28.3838 26.4391L30.7688 28.8241C31.1098 29.1661 31.1098 29.7201 30.7688 30.0621 30.5978 30.2331 30.3738 30.3181 30.1498 30.3181"/>
  </g>
</svg>
