<svg xmlns="http://www.w3.org/2000/svg" width="87" height="87" viewBox="0 0 87 87">
  <g fill="none" fill-rule="evenodd">
    <path fill="#F7971D" d="M86.6388,43.3186 C86.6388,67.2446 67.2438,86.6386 43.3198,86.6386 C19.3948,86.6386 -0.0002,67.2446 -0.0002,43.3186 C-0.0002,19.3936 19.3948,0.0006 43.3198,0.0006 C67.2438,0.0006 86.6388,19.3936 86.6388,43.3186"/>
    <path fill="#FEFEFE" d="M52.8907,63.4699 L32.7157,63.4699 C32.5677,63.4699 32.4457,63.3479 32.4457,63.1989 C32.4457,63.0499 32.5677,62.9279 32.7157,62.9279 L52.8907,62.9279 C53.0387,62.9279 53.1617,63.0499 53.1617,63.1989 C53.1617,63.3479 53.0387,63.4699 52.8907,63.4699"/>
    <path fill="#FEFEFE" d="M32.7169 63.1399C32.6839 63.1399 32.6559 63.1669 32.6559 63.1999 32.6559 63.2319 32.6839 63.2579 32.7169 63.2579L52.8909 63.2579C52.9219 63.2579 52.9489 63.2319 52.9489 63.1999 52.9489 63.1669 52.9219 63.1399 52.8909 63.1399L32.7169 63.1399zM52.8909 63.6819L32.7169 63.6819C32.4489 63.6819 32.2329 63.4649 32.2329 63.1999 32.2329 62.9319 32.4489 62.7159 32.7169 62.7159L52.8909 62.7159C53.1559 62.7159 53.3729 62.9319 53.3729 63.1999 53.3729 63.4649 53.1559 63.6819 52.8909 63.6819zM68.7911 60.1496L40.2711 60.1496C39.9201 60.1496 39.6361 59.8646 39.6361 59.5136 39.6361 59.1616 39.9201 58.8786 40.2711 58.8786L67.5191 58.8786 67.5191 25.1536 18.2911 25.1536 18.2911 36.7086C18.2911 37.0596 18.0061 37.3436 17.6551 37.3436 17.3041 37.3436 17.0191 37.0596 17.0191 36.7086L17.0191 23.8816 68.7911 23.8816 68.7911 60.1496z"/>
    <path fill="#FEFEFE" d="M18.2569,40.7024 C18.0399,40.7024 17.8639,40.8784 17.8639,41.0954 C17.8639,41.3114 18.0399,41.4874 18.2569,41.4874 C27.7159,41.4874 35.4099,49.1814 35.4099,58.6394 C35.4099,58.8574 35.5869,59.0334 35.8029,59.0334 C36.0199,59.0334 36.1949,58.8574 36.1949,58.6394 C36.1949,48.7494 28.1489,40.7024 18.2569,40.7024"/>
    <path fill="#FEFEFE" d="M18.2569,40.9143 C18.1569,40.9143 18.0759,40.9953 18.0759,41.0953 C18.0759,41.1943 18.1569,41.2753 18.2569,41.2753 C27.8319,41.2753 35.6229,49.0653 35.6229,58.6413 C35.6229,58.7403 35.7029,58.8213 35.8029,58.8213 C35.9029,58.8213 35.9839,58.7403 35.9839,58.6413 C35.9839,48.8663 28.0309,40.9143 18.2569,40.9143 M35.8029,59.2453 C35.4699,59.2453 35.1989,58.9753 35.1989,58.6413 C35.1989,49.2993 27.5989,41.6993 18.2569,41.6993 C17.9229,41.6993 17.6529,41.4283 17.6529,41.0953 C17.6529,40.7613 17.9229,40.4903 18.2569,40.4903 C28.2649,40.4903 36.4069,48.6323 36.4069,58.6413 C36.4069,58.9753 36.1369,59.2453 35.8029,59.2453"/>
    <path fill="#FEFEFE" d="M18.2569,45.9407 C18.0399,45.9407 17.8639,46.1177 17.8639,46.3347 C17.8639,46.5497 18.0399,46.7257 18.2569,46.7257 C24.8269,46.7257 30.1719,52.0707 30.1719,58.6407 C30.1719,58.8567 30.3479,59.0337 30.5649,59.0337 C30.7799,59.0337 30.9559,58.8567 30.9559,58.6407 C30.9559,51.6377 25.2599,45.9407 18.2569,45.9407"/>
    <path fill="#FEFEFE" d="M18.2569,46.1535 C18.1569,46.1535 18.0759,46.2345 18.0759,46.3345 C18.0759,46.4325 18.1569,46.5135 18.2569,46.5135 C24.9439,46.5135 30.3839,51.9545 30.3839,58.6405 C30.3839,58.7405 30.4649,58.8215 30.5649,58.8215 C30.6639,58.8215 30.7439,58.7405 30.7439,58.6405 C30.7439,51.7555 25.1429,46.1535 18.2569,46.1535 M30.5649,59.2455 C30.2309,59.2455 29.9599,58.9735 29.9599,58.6405 C29.9599,52.1875 24.7099,46.9375 18.2569,46.9375 C17.9229,46.9375 17.6529,46.6675 17.6529,46.3345 C17.6529,46.0005 17.9229,45.7285 18.2569,45.7285 C25.3769,45.7285 31.1679,51.5205 31.1679,58.6405 C31.1679,58.9735 30.8979,59.2455 30.5649,59.2455"/>
    <path fill="#FEFEFE" d="M24.0177,55.5637 C24.0177,57.0437 22.8147,58.2487 21.3337,58.2487 C19.8537,58.2487 18.6497,57.0437 18.6497,55.5637 C18.6497,54.0847 19.8537,52.8787 21.3337,52.8787 C22.8147,52.8787 24.0177,54.0847 24.0177,55.5637 M21.3337,52.0947 C19.4207,52.0947 17.8647,53.6507 17.8647,55.5637 C17.8647,57.4767 19.4207,59.0337 21.3337,59.0337 C23.2467,59.0337 24.8027,57.4767 24.8027,55.5637 C24.8027,53.6507 23.2467,52.0947 21.3337,52.0947"/>
    <path fill="#FEFEFE" d="M21.3341,53.092 C19.9711,53.092 18.8611,54.2 18.8611,55.564 C18.8611,56.927 19.9711,58.035 21.3341,58.035 C22.6971,58.035 23.8061,56.927 23.8061,55.564 C23.8061,54.2 22.6971,53.092 21.3341,53.092 M21.3341,58.46 C19.7371,58.46 18.4381,57.16 18.4381,55.564 C18.4381,53.967 19.7371,52.668 21.3341,52.668 C22.9321,52.668 24.2301,53.967 24.2301,55.564 C24.2301,57.16 22.9321,58.46 21.3341,58.46 M21.3341,52.307 C19.5381,52.307 18.0761,53.768 18.0761,55.564 C18.0761,57.36 19.5381,58.821 21.3341,58.821 C23.1301,58.821 24.5911,57.36 24.5911,55.564 C24.5911,53.768 23.1301,52.307 21.3341,52.307 M21.3341,59.245 C19.3041,59.245 17.6521,57.594 17.6521,55.564 C17.6521,53.533 19.3041,51.883 21.3341,51.883 C23.3631,51.883 25.0161,53.533 25.0161,55.564 C25.0161,57.594 23.3631,59.245 21.3341,59.245"/>
    <polygon fill="#FEFEFE" points="48.983 42.507 38.938 36.707 38.938 48.307"/>
  </g>
</svg>
